<svg id="Layer_2" data-name="Layer 2" xmlns="http://www.w3.org/2000/svg" viewBox="0 0 115.7 110.26"><defs><style>.cls-1{fill:#c2f4ff}.cls-2{fill:#c8d7e2}.cls-3{fill:#00a9de}.cls-4{fill:#74dcfc}.cls-5{fill:#fff}.cls-6{fill:#004f84}</style></defs><title>features_easy_illo</title><path class="cls-1" d="M528.83 391.63H438.3v-63.51a17.27 17.27 0 0 1 17.27-17.27h54.61a18.64 18.64 0 0 1 18.64 18.64z" transform="translate(-438.3 -281.38)"/><path class="cls-2" d="M528.38 303.43l-39 12.07s-3.21-4.38.53-13.1 17.56-17.25 31.61-19.62a144.41 144.41 0 0 1 18.68-1.4c8.57-.2 15.15 8 13.6 17a33.22 33.22 0 0 1-5 12.65" transform="translate(-438.3 -281.38)"/><circle class="cls-3" cx="45.84" cy="74.05" r="22.64"/><path class="cls-3" d="M23.21 60.84h45.27v13.22H23.21z"/><circle class="cls-4" cx="45.84" cy="61.2" r="22.64"/><path class="cls-5" d="M475.35 344.54c2.28 2.07 4.5 4.2 6.72 6.33l-1.41.09c2.2-2.91 4.37-5.84 6.63-8.7s4.53-5.72 6.9-8.5a.67.67 0 0 1 1.06.81q-3.1 4.51-6.41 8.87c-2.18 2.93-4.44 5.78-6.68 8.66a.92.92 0 0 1-1.29.16l-.1-.09c-2.13-2.22-4.27-4.44-6.33-6.72a.67.67 0 0 1 .94-.94z" transform="translate(-438.3 -281.38)"/><path class="cls-2" d="M521.2 297.42c-28.54 5-43.56 31.83-38 33.45s16.95-19.82 33.49-21.38c12.77-1.2 10.63 4.57 3.3 7.79-10.85 4.78-12.74 9.05-11.09 12.07s21.75-3 34-12.07a27.25 27.25 0 0 0 9.44-13.58" transform="translate(-438.3 -281.38)"/><path class="cls-6" d="M521.31 298.08a53.82 53.82 0 0 0-21.06 8.84 57.37 57.37 0 0 0-8.72 7.45 42.9 42.9 0 0 0-6.8 9.14 14 14 0 0 0-1.77 5.11 2.44 2.44 0 0 0 .12 1 .55.55 0 0 0 .46.37 3.2 3.2 0 0 0 2.09-.63 28.27 28.27 0 0 0 4.32-3.6l4.16-4.08a74.29 74.29 0 0 1 9-7.68 30.62 30.62 0 0 1 10.79-5 23 23 0 0 1 3-.46c1-.09 2-.14 3-.15a17.26 17.26 0 0 1 3.08.24 5.74 5.74 0 0 1 3.17 1.47 2.71 2.71 0 0 1 .72 2.1 4 4 0 0 1-.69 1.79 9.4 9.4 0 0 1-2.31 2.28 18 18 0 0 1-2.65 1.57l-2.65 1.16a36.54 36.54 0 0 0-4.94 2.79 12.11 12.11 0 0 0-3.79 3.77 3.61 3.61 0 0 0-.48 2.24 3.32 3.32 0 0 0 .36 1.07c0 .05 0 0 .13.11a2 2 0 0 0 .45.15 9.36 9.36 0 0 0 2.62 0 28.15 28.15 0 0 0 2.79-.46 68.3 68.3 0 0 0 11-3.49 82.23 82.23 0 0 0 10.29-5.03 36.51 36.51 0 0 0 9.07-6.85 27 27 0 0 0 5.59-9.76.67.67 0 0 1 1.28.38 26.26 26.26 0 0 1-2.33 5.53 28.22 28.22 0 0 1-3.42 4.9 27.62 27.62 0 0 1-4.42 4 57.66 57.66 0 0 1-4.94 3.25 83.92 83.92 0 0 1-10.56 5.21 70 70 0 0 1-11.23 3.64 29.9 29.9 0 0 1-3 .51 10.93 10.93 0 0 1-3.19 0 3.75 3.75 0 0 1-.93-.31 2.06 2.06 0 0 1-.91-.87 5.17 5.17 0 0 1-.56-1.68 5.46 5.46 0 0 1 .67-3.38 13.82 13.82 0 0 1 4.35-4.44 38.38 38.38 0 0 1 5.18-3l2.64-1.23a16 16 0 0 0 2.35-1.41 7.55 7.55 0 0 0 1.82-1.79 2.06 2.06 0 0 0 .37-.89.7.7 0 0 0-.21-.57 4 4 0 0 0-2.08-.85 16.51 16.51 0 0 0-2.73-.21 26.79 26.79 0 0 0-5.58.54 28.71 28.71 0 0 0-10.16 4.73 72.49 72.49 0 0 0-8.67 7.4l-4.19 4.07a29.66 29.66 0 0 1-4.65 3.82 7.24 7.24 0 0 1-1.51.7 3.61 3.61 0 0 1-1.9.13 2.38 2.38 0 0 1-1.71-1.4 4.11 4.11 0 0 1-.26-1.84 10.91 10.91 0 0 1 .74-3.08 23 23 0 0 1 1.27-2.75 44.57 44.57 0 0 1 7.11-9.5 56.23 56.23 0 0 1 9-7.61 55.3 55.3 0 0 1 21.74-8.82.67.67 0 0 1 .23 1.31zM519.09 291.8a54.11 54.11 0 0 0-16.35 6.65 47.47 47.47 0 0 0-7.08 5.26 32.33 32.33 0 0 0-5.73 6.61.67.67 0 0 1-1.16-.66 28 28 0 0 1 5.61-7.34 43.1 43.1 0 0 1 7.33-5.57 48 48 0 0 1 8.27-4 43 43 0 0 1 8.88-2.28.67.67 0 0 1 .24 1.31zM489.3 302.07a23.88 23.88 0 0 1 5.15-6.33 53.59 53.59 0 0 1 6.37-4.93 71.65 71.65 0 0 1 6.93-4 64.09 64.09 0 0 1 7.36-3.18.67.67 0 0 1 .51 1.23c-2.36 1.15-4.7 2.33-7 3.61s-4.53 2.61-6.72 4a65.93 65.93 0 0 0-6.27 4.64 27 27 0 0 0-5.18 5.62.67.67 0 0 1-1.15-.67z" transform="translate(-438.3 -281.38)"/></svg>