<svg id="Layer_2" data-name="Layer 2" xmlns="http://www.w3.org/2000/svg" viewBox="0 0 97.8 91.51"><defs><style>.cls-1{fill:#00a9de}.cls-2{fill:#0084c0}.cls-3{fill:#74dcfc}.cls-4{fill:#c2f4ff}.cls-5{fill:#fff}.cls-6{fill:none;stroke:#74dcfc;stroke-miterlimit:10}.cls-7{fill:#004f84}</style></defs><title>features_design_illo</title><path class="cls-1" d="M286 712.16v-55.49a4.2 4.2 0 0 1 4.2-4.2h62.11a4.2 4.2 0 0 1 4.2 4.2v55.49z" transform="translate(-258.71 -652.47)"/><path class="cls-2" d="M34.51 20.9h21.46v29.55H34.51zM64.13 20.9H89.3v31.17H64.13z"/><path class="cls-2" d="M286 666.78v-10.11a4.2 4.2 0 0 1 4.2-4.2h62.11a4.2 4.2 0 0 1 4.2 4.2v10.11z" transform="translate(-258.71 -652.47)"/><path class="cls-3" d="M260.35 743.85v-54.92a4.18 4.18 0 0 1 4.2-4.15h62.11a4.18 4.18 0 0 1 4.2 4.15v54.92z" transform="translate(-258.71 -652.47)"/><path class="cls-4" d="M313.41 698.63H267.9v-1.72a3.72 3.72 0 0 1 3.72-3.72h41.79zM287.36 709.59H267.9v-5.44h24.53v.37a5.07 5.07 0 0 1-5.07 5.07z" transform="translate(-258.71 -652.47)"/><path class="cls-1" d="M1.64 66.11h37.31v25.26H1.64z"/><path class="cls-5" d="M36.9 66.11h34.83v25.26H36.9z"/><path class="cls-6" d="M71.73 66.11V91H36.9"/><path class="cls-3" d="M65.41 70.56v15.09H49.48"/><path class="cls-7" d="M332.24 718.84a153.51 153.51 0 0 1-18.38.81c-6.13.08-12.26.09-18.38.12s-12.26 0-18.38-.12a153.3 153.3 0 0 1-18.38-.81v-.5a153.31 153.31 0 0 1 18.38-.82c6.13-.08 12.26-.09 18.38-.12s12.26 0 18.38.12a153.51 153.51 0 0 1 18.38.81z" transform="translate(-258.71 -652.47)"/></svg>