<svg id="Layer_2" data-name="Layer 2" xmlns="http://www.w3.org/2000/svg" viewBox="0 0 128.68 100.09"><defs><style>.cls-1{fill:#00a9de}.cls-2{fill:#74dcfc}.cls-3{fill:#fff}.cls-4{fill:#c8d7e2}.cls-5{fill:#c2f4ff}.cls-6{fill:#0084c0}</style></defs><title>features_mobile_illo</title><path class="cls-1" d="M57.06 80.11h39.53v17.5H57.06z"/><path class="cls-2" d="M27.39 0h101.29v82H22.48V4.92A4.92 4.92 0 0 1 27.39 0z"/><path class="cls-3" d="M31.29 9.97h88.1v62.07h-88.1z"/><path class="cls-1" d="M180.29 537.06c-7.72.76-15.44.65-23.16.68h-23.16l-23.16-.25c-7.72-.12-15.44-.09-23.16-1V536c7.72-.77 15.44-.65 23.16-.68h23.16l23.16.25c7.72.12 15.44.1 23.16.95zM167.49 563.18a111.94 111.94 0 0 1-15.69.68h-15.69c-5.23 0-10.46-.13-15.69-.25a111.79 111.79 0 0 1-15.68-1v-.5a111.79 111.79 0 0 1 15.69-.68h15.69c5.23 0 10.46.13 15.69.25a111.94 111.94 0 0 1 15.68.95z" transform="translate(-58.84 -464.65)"/><path class="cls-3" d="M179.24 541.55a9.7 9.7 0 0 1-3.36.94c-1.13.14-2.25.24-3.39.26s-2.26 0-3.4 0a15 15 0 0 1-3.41-.45.42.42 0 0 1 0-.8 15 15 0 0 1 3.37-.72c1.13-.12 2.25-.22 3.38-.29s2.26-.06 3.4 0a9.7 9.7 0 0 1 3.42.67.22.22 0 0 1 0 .4z" transform="translate(-58.84 -464.65)"/><circle class="cls-4" cx="8.29" cy="37.79" r="1.97"/><circle class="cls-2" cx="8.29" cy="29.38" r="1.97"/><circle class="cls-4" cx="8.29" cy="20.42" r="1.97"/><circle class="cls-4" cx="16.35" cy="20.42" r="1.97"/><path class="cls-5" d="M158 525.82h-46.88v-34.51h50v31.38a3.12 3.12 0 0 1-3.12 3.13z" transform="translate(-58.84 -464.65)"/><path class="cls-6" d="M57.47 18.84h39.62a5.19 5.19 0 0 1 5.19 5.16v3.64h-50V24a5.19 5.19 0 0 1 5.19-5.16z"/><path class="cls-3" d="M114.51 510.68a30.61 30.61 0 0 1 12.18-.6 62 62 0 0 1 11.79 2.77 68.94 68.94 0 0 1 11.12 4.79c3.5 2 7 4.21 9.52 7.67a.66.66 0 0 1-1 .82l-.05-.06a20.12 20.12 0 0 0-4.28-3.78 44.75 44.75 0 0 0-5-3 76.26 76.26 0 0 0-10.85-4.58 67.57 67.57 0 0 0-11.41-2.85c-1-.14-1.94-.23-2.91-.34s-1.94-.07-2.92-.14-1.93.08-2.9.11-1.89.31-2.85.46h-.07a.66.66 0 0 1-.29-1.3zM63.88 564a4 4 0 0 1-4-4v-45.47a4 4 0 0 1 4-4h21a4 4 0 0 1 4 4V560a4 4 0 0 1-4 4H67.52" transform="translate(-58.84 -464.65)"/><path class="cls-5" d="M1.07 54.64h28.91V90.5H1.07z"/><path class="cls-2" d="M153.25 504.5a4.81 4.81 0 0 1-3.19 1.83 4.94 4.94 0 0 1-4.57-7.95 4.92 4.92 0 0 1 8.81 2.62 5 5 0 0 1-1.05 3.5zm-1-.83a3.29 3.29 0 0 0 .66-2.53 3.3 3.3 0 0 0-5.91-1.54 3.28 3.28 0 0 0 2.86 5.32 3.43 3.43 0 0 0 2.34-1.25zM82.73 538.2a4.81 4.81 0 0 1-3.19 1.8 4.94 4.94 0 0 1-4.54-7.92 4.92 4.92 0 0 1 8.81 2.58 5 5 0 0 1-1.08 3.54zm-1-.83a3.29 3.29 0 0 0 .66-2.53 3.3 3.3 0 0 0-5.83-1.54 3.28 3.28 0 0 0 2.86 5.32 3.43 3.43 0 0 0 2.26-1.25z" transform="translate(-58.84 -464.65)"/><path class="cls-6" d="M1.44 54.64h28.17v6.46H1.44z"/><path class="cls-3" d="M63.32 546.41a17.87 17.87 0 0 1 7.09-1.07 25.45 25.45 0 0 1 7 1.24 21.15 21.15 0 0 1 6.39 3.32 13.91 13.91 0 0 1 4.42 5.73.67.67 0 0 1-1.21.57 14.48 14.48 0 0 0-4.35-4.79 21.62 21.62 0 0 0-5.87-2.94 27.22 27.22 0 0 0-6.51-1.31 19.64 19.64 0 0 0-6.55.52.67.67 0 0 1-.42-1.26z" transform="translate(-58.84 -464.65)"/><path class="cls-6" d="M63.88 564.48a4.52 4.52 0 0 1-4.26-2.88 4.28 4.28 0 0 1-.3-1.34V556.61l-.21-9.61-.18-19.27-.08-9.64v-3.64a5 5 0 0 1 4.88-4.94l19.27-.09h1.81a5.66 5.66 0 0 1 .77.06 5.07 5.07 0 0 1 2.76 1.33 5.13 5.13 0 0 1 1.5 2.67 6.82 6.82 0 0 1 .11 1.44v10.84c0 6.42 0 12.85-.1 19.27l-.1 9.64-.05 4.82v.62a4.86 4.86 0 0 1-.55 2.1 4.78 4.78 0 0 1-2 2 4.94 4.94 0 0 1-1.36.46 6.92 6.92 0 0 1-1.34.07h-2.41l-4.82-.07-9.64-.16a.5.5 0 0 1 0-1l9.64-.16 4.82-.07h2.41a5.12 5.12 0 0 0 1.06-.08 3.37 3.37 0 0 0 .9-.34 3.23 3.23 0 0 0 1.29-1.37 3.16 3.16 0 0 0 .32-1.37v-.59l-.05-4.82-.17-9.71c-.08-6.42-.06-12.85-.1-19.27v-9.64a15.93 15.93 0 0 0-.07-2.17 2.85 2.85 0 0 0-.83-1.46 2.75 2.75 0 0 0-1.51-.74 3.33 3.33 0 0 0-.43 0H83l-19.24-.05a2.88 2.88 0 0 0-2.8 2.81v3.59l-.08 9.64-.17 19.29-.15 9.64v3.58a3.11 3.11 0 0 0 .19 1 3.44 3.44 0 0 0 3.18 2.29.5.5 0 0 1 0 1z" transform="translate(-58.84 -464.65)"/></svg>