<svg id="Layer_2" data-name="Layer 2" xmlns="http://www.w3.org/2000/svg" viewBox="0 0 116.42 97.18"><defs><style>.cls-1{fill:#86a6bd}.cls-2{fill:#004f84}.cls-3{fill:#c8d7e2}.cls-4{fill:#004f81}.cls-5{fill:none;stroke:#f6f8fa;stroke-linecap:round;stroke-linejoin:round;stroke-width:2px}.cls-6{fill:#0084c0}.cls-7{fill:#fff}.cls-8{fill:#74dcfc}</style></defs><title>features_support_illo</title><path class="cls-1" d="M315.54 302.39a1.89 1.89 0 0 1 0 .46c-1.06-2.56-4.26-6.08-13.9-6.08a16.08 16.08 0 0 0-11.78 5.2 2.17 2.17 0 0 1 0-.46c-6.49 4.35-6.48 17.21-6.48 17.21 2.4.06 6.22-5.6 8.3-10.83a4.22 4.22 0 0 1 4-2.41h13.63a4.18 4.18 0 0 1 4 2.47c1.94 5.34 5.82 11.71 8.27 11.65-.02-.01.42-12.87-6.04-17.21z" transform="translate(-257.02 -291.71)"/><rect class="cls-2" x="34.58" y="33.14" width="3.23" height="5.77" rx="1.45" ry="1.45"/><path class="cls-3" d="M303.33 325.09a30.62 30.62 0 0 1 .33 4.49 22.75 22.75 0 0 1-.33 4.49.68.68 0 0 1-1.33 0 22.76 22.76 0 0 1-.33-4.49 30.62 30.62 0 0 1 .33-4.49.68.68 0 0 1 1.33 0z" transform="translate(-257.02 -291.71)"/><rect class="cls-2" x="53.13" y="33.14" width="3.23" height="5.77" rx="1.45" ry="1.45"/><path class="cls-4" d="M298.66 339a10.35 10.35 0 0 0 1.93.41c.68.09 1.39.15 2.09.17a16.74 16.74 0 0 0 2.08-.07 6 6 0 0 0 1.83-.43h.1a.66.66 0 0 1 .75 1.07 4.92 4.92 0 0 1-2.36 1.2 9.91 9.91 0 0 1-2.45.26 10 10 0 0 1-2.42-.32 5.55 5.55 0 0 1-2.31-1.16.67.67 0 0 1 .66-1.13zM307.58 318.18a3.61 3.61 0 0 1 1.89-1 6.85 6.85 0 0 1 1.92-.18 7.12 7.12 0 0 1 1.91.32 4.29 4.29 0 0 1 1.77 1 .67.67 0 0 1-.71 1.1h-.09a9.33 9.33 0 0 0-2.93-.44h-1.54a9 9 0 0 0-1.32.19l-.26.06a.64.64 0 0 1-.78-.47.65.65 0 0 1 .14-.58zM296.32 319.17A9 9 0 0 0 295 319h-1.54a9.33 9.33 0 0 0-2.93.44h-.09a.67.67 0 0 1-.71-1.1 4.29 4.29 0 0 1 1.77-1 7.12 7.12 0 0 1 1.91-.32 6.85 6.85 0 0 1 1.92.18 3.61 3.61 0 0 1 1.89 1 .64.64 0 0 1-.62 1.06z" transform="translate(-257.02 -291.71)"/><path class="cls-1" d="M321.73 323.05a78.65 78.65 0 0 1-1.19 9.21 36.82 36.82 0 0 1-2.85 8.92 17.55 17.55 0 0 1-6.12 7.26 15 15 0 0 1-4.43 1.95 17.72 17.72 0 0 1-4.79.6 20.05 20.05 0 0 1-9.22-2.5 19.12 19.12 0 0 1-6.91-6.63 25.16 25.16 0 0 1-3.31-8.92 34.82 34.82 0 0 1-.51-4.7c-.07-1.55-.11-3.11-.07-4.67a49 49 0 0 1 1-9.32 31.54 31.54 0 0 1 3.23-8.88 20.35 20.35 0 0 1 6.36-7.1 16.82 16.82 0 0 1 4.36-2.09 16.47 16.47 0 0 1 4.78-.7 17.41 17.41 0 0 1 9.11 2.72 21.11 21.11 0 0 1 6.64 6.73c3.41 5.4 4.42 11.94 3.92 18.12zm-1.33-.1c.46-6-.56-12.21-3.76-17.26a19.17 19.17 0 0 0-6.23-6.21 15.85 15.85 0 0 0-8.33-2.39 14.48 14.48 0 0 0-8.18 2.6 18.59 18.59 0 0 0-5.73 6.56 30.69 30.69 0 0 0-3 8.39 47 47 0 0 0-.93 9 47.93 47.93 0 0 0 .59 9 23.21 23.21 0 0 0 3 8.25 17.51 17.51 0 0 0 6.18 6 18.27 18.27 0 0 0 8.34 2.4 15.06 15.06 0 0 0 8.31-2.16 16 16 0 0 0 5.68-6.57 35 35 0 0 0 2.79-8.55 77.34 77.34 0 0 0 1.27-9.06z" transform="translate(-257.02 -291.71)"/><path class="cls-3" d="M312 338.15a3.41 3.41 0 0 1 .33 1.44A2.55 2.55 0 0 1 312 341a.78.78 0 0 1-1.07.27.79.79 0 0 1-.27-.27 2.55 2.55 0 0 1-.33-1.44 3.41 3.41 0 0 1 .33-1.44.75.75 0 0 1 1.33 0z" transform="translate(-257.02 -291.71)"/><path class="cls-6" d="M257 388.9c0-13.07 20.09-24.57 25.5-27.46 0 0 10.21 8 19.51 8S319 362 319 362s21.43 7.05 28.63 26.86H257" transform="translate(-257.02 -291.71)"/><path class="cls-7" d="M373.2 312.75a20 20 0 0 1-22.88 19.79c-2.82-.41-6.17 2.72-17.22 1.93 5.12-5.34 3.62-10.4 3.62-10.4a20 20 0 1 1 36.48-11.32z" transform="translate(-257.02 -291.71)"/><path class="cls-6" d="M373.45 312.75a22.27 22.27 0 0 1-3.7 12.5 19.33 19.33 0 0 1-10.8 7.72 21.24 21.24 0 0 1-6.72.81q-.85 0-1.7-.14h-.69a4.18 4.18 0 0 0-.64 0 30.72 30.72 0 0 0-3 .77 37.88 37.88 0 0 1-13.2 1.15l-2.18-.15 1.47-1.7c.29-.34.6-.67.88-1s.55-.7.78-1.08a12.48 12.48 0 0 0 1.2-2.32 10.49 10.49 0 0 0 .59-2.5 8.22 8.22 0 0 0 0-1.27 6.49 6.49 0 0 0-.15-1.15l.15.32a21 21 0 0 1-2.56-18.89 21.21 21.21 0 0 1 13.82-13.2 21 21 0 0 1 18.68 3.25 19.45 19.45 0 0 1 5.91 7.61 23.07 23.07 0 0 1 1.86 9.27zm-.5 0a17.46 17.46 0 0 0-2.4-8.77 20.93 20.93 0 0 0-6.07-6.55 21.4 21.4 0 0 0-3.87-2.16 19.08 19.08 0 0 0-13-.6 19 19 0 0 0-9.95 28.76l.12.17v.15A9.44 9.44 0 0 1 338 327a12.73 12.73 0 0 1-.74 3.06 14.68 14.68 0 0 1-1.44 2.75c-.27.44-.61.83-.91 1.24s-.67.76-1 1.14l-.71-1.85a35.67 35.67 0 0 0 12.46-1.06 31 31 0 0 1 3.27-.81 6.29 6.29 0 0 1 1-.07h.52l.4.05q.76.1 1.53.14a19.17 19.17 0 0 0 6.07-.68 21 21 0 0 0 10.17-6.65 18 18 0 0 0 4.33-11.51z" transform="translate(-257.02 -291.71)"/><circle class="cls-8" cx="87.9" cy="22.38" r="1.79"/><circle class="cls-8" cx="97.06" cy="22.38" r="1.79"/><circle class="cls-8" cx="106.21" cy="22.38" r="1.79"/><path class="cls-3" d="M304.86 366l-1.12-2.74-.55-1.37a4.41 4.41 0 0 0-.58-1.11 3.73 3.73 0 0 0-1.95-1.36l-2.77-1-5.64-1.74-5.61-1.82 1.1-.41c-.41.62-.84 1.23-1.26 1.85s-.87 1.21-1.33 1.8a.67.67 0 0 1-1.13-.7c.32-.68.66-1.34 1-2s.71-1.31 1.09-2a.92.92 0 0 1 1.07-.42l5.66 1.74 5.63 1.82c.94.32 1.86.7 2.79 1.05a5.52 5.52 0 0 1 2.72 2.1 5.66 5.66 0 0 1 .72 1.53l.46 1.4.91 2.81a.67.67 0 0 1-1.25.46zM305.33 357.5q1.21-.64 2.45-1.22c.83-.38 1.64-.78 2.48-1.14 1.67-.72 3.33-1.46 5-2.11a1 1 0 0 1 1.2.48c.38.78.73 1.59 1.08 2.38s.68 1.61 1 2.43a.67.67 0 0 1-1.19.6c-.47-.74-.93-1.48-1.35-2.25s-.86-1.52-1.27-2.29l1.24.46c-1.66.74-3.35 1.4-5 2.08-.84.34-1.7.63-2.56 1s-1.72.6-2.59.87a.67.67 0 0 1-.51-1.23z" transform="translate(-257.02 -291.71)"/><path class="cls-1" d="M312.44 346.42a3.35 3.35 0 0 1 .62 1.28 4.36 4.36 0 0 1 .13 1.28 5.75 5.75 0 0 1-.19 1.28 4.1 4.1 0 0 1-.56 1.28.3.3 0 0 1-.42.08.31.31 0 0 1-.08-.08 4.1 4.1 0 0 1-.56-1.28 5.75 5.75 0 0 1-.19-1.28 4.35 4.35 0 0 1 .13-1.28 3.35 3.35 0 0 1 .62-1.28.32.32 0 0 1 .45-.05z" transform="translate(-257.02 -291.71)"/></svg>