<svg id="Layer_2" xmlns="http://www.w3.org/2000/svg" viewBox="0 0 143.3 102.7"><style>.st0{fill:none}.st1{fill:#c8d7e2}.st2{fill:#00a9de}.st3{enable-background:new}.st4{fill:#fff}.st5{fill:#0084c0}.st6{fill:#004f84}.st7{fill:#86a6bd}</style><title>features_domain_illo</title><path class="st1" d="M63.4 67.8c.1 2.8.2 5.6.2 8.5s0 5.6.1 8.5 0 5.6 0 8.5-.1 5.6-.3 8.5c0 .4-.4.6-.7.6-.3 0-.5-.3-.6-.6-.1-2.8-.2-5.6-.3-8.5s-.1-5.6 0-8.5 0-5.6.1-8.5.1-5.6.2-8.5c0-.4.4-.6.7-.6.4 0 .6.3.6.6zM107.8 39.8c-.7 5.1-1.3 10.2-2.1 15.4s-1.5 10.2-2.2 15.3-1.6 10.2-2.4 15.3l-1.3 7.6-1.3 7.7c-.1.4-.4.6-.8.5-.3-.1-.5-.4-.5-.7l1-7.7 1.1-7.7c.8-5.1 1.5-10.2 2.3-15.3l2.4-15.3c.8-5.1 1.7-10.2 2.6-15.3.1-.4.4-.6.8-.5.2.1.5.4.4.7z"/><path class="st2" d="M85.5 13.2l57.8 6.1-2.8 26.1c-.5 5.2-5.2 8.9-10.3 8.4l-57.8-6.1 2.8-26.1c.5-5.1 5.1-8.9 10.3-8.4z"/><g class="st3"><path class="st4" d="M90.5 34c.1-.2.3-.4.6-.5.2-.1.5-.1.7-.1.3 0 .5.1.6.2.2.1.3.3.4.5.1.2.1.4.1.7 0 .2-.1.5-.3.7-.1.2-.3.4-.5.5-.2.1-.5.1-.7.1-.2 0-.4-.1-.6-.2-.2-.1-.3-.3-.4-.5-.1-.2-.1-.4-.1-.7 0-.3.1-.5.2-.7zM105.3 27.3l-1.1 10.2-2.1-.2-3-6.1-.6-1.7v2.4l-.5 4.9-2-.2 1-10.2 2 .2 3.2 6.4.6 1.6.1-2.5.5-5.1 1.9.3zM115.1 28.3l-.2 1.6-4.1-.4-.3 2.5 3.1.3-.2 1.6-3.1-.3-.3 2.7 4.5.5-.2 1.7-6.6-.7 1.1-10.2 6.3.7zM117.1 30.2l.2-1.6 7.9.8-.2 1.6-2.9-.3-.9 8.5-2.1-.2.9-8.5-2.9-.3z"/></g><path class="st1" d="M35.8 27.4c1 6.2 2 12.3 2.9 18.5s1.8 12.4 2.7 18.5L44 83l1.2 9.3 1.1 9.3c0 .4-.3.7-.6.7s-.6-.2-.7-.5l-1.5-9.2-1.4-9.3-2.7-18.6c-.9-6.2-1.8-12.4-2.6-18.6l-2.4-18.6c0-.4.3-.7.6-.7.5 0 .8.3.8.6z"/><path class="st5" d="M8.4 6.1L66.2 0 69 26.2c.5 5.2-3.2 9.8-8.4 10.3L2.8 42.6.1 16.5c-.6-5.2 3.1-9.8 8.3-10.4z"/><g class="st3"><path class="st4" d="M16.3 25.4c.1-.2.3-.4.4-.6.2-.2.4-.2.7-.3.3 0 .5 0 .7.1.2.1.4.2.5.4.1.2.2.4.2.7 0 .2 0 .5-.1.7-.1.2-.2.4-.4.6-.2.1-.4.2-.7.3-.2 0-.5 0-.7-.1-.2-.1-.4-.2-.5-.4-.1-.2-.2-.4-.2-.6 0-.3 0-.6.1-.8zM21.3 18.8c.3-.8.8-1.4 1.5-1.8.7-.4 1.5-.7 2.4-.8.9-.1 1.7 0 2.5.4.7.3 1.3.9 1.8 1.6s.7 1.6.8 2.6c.1 1.1 0 2.1-.3 2.9-.3.8-.8 1.4-1.5 1.9-.7.4-1.5.7-2.5.8-.9.1-1.8 0-2.5-.4s-1.3-.9-1.8-1.7-.7-1.6-.8-2.6c0-1.1.1-2.1.4-2.9zm6.4.4c-.2-.5-.5-.9-.9-1.1-.4-.3-.8-.4-1.4-.3-.5.1-.9.2-1.3.5s-.6.7-.8 1.2c-.2.5-.2 1.2-.1 2 .1.7.2 1.2.5 1.8.2.5.6.9 1 1.2.4.3.9.4 1.4.3.8-.1 1.4-.4 1.7-1.1.4-.6.5-1.6.4-2.8-.2-.6-.3-1.2-.5-1.7zM41.8 24.7l-2.3.3-.2-.2c-.1-.1-.1-.2-.2-.3l-.1-.2c-.1-.2-.2-.3-.3-.5-.1-.2-.2-.4-.3-.7-.2-.4-.3-.7-.5-1-.1-.2-.3-.4-.5-.6-.2-.2-.4-.2-.6-.2-.5 0-.9.1-1.3.1l.4 3.9-2.1.2-1.1-10.2 1-.1c.2 0 .5-.1.8-.1.2 0 .5-.1.9-.1.3 0 .7-.1 1.1-.1 1.1-.1 2 0 2.7.4.7.4 1.1 1.1 1.3 2.2.1.8 0 1.4-.2 1.9s-.6.9-1.2 1.2c.3.2.5.4.7.7.2.3.5.7.8 1.3.3.6.6 1 .8 1.3l.4.8zM35.4 20c.2 0 .7 0 1.4-.1.6-.1 1-.3 1.3-.6.2-.4.3-.8.3-1.3 0-.3-.1-.5-.2-.8-.1-.2-.3-.4-.6-.5-.3-.1-.7-.1-1.2-.1-.5.1-1 .1-1.3.3l.3 3.1zM51.8 18l.5 4.9c-.1 0-.2 0-.3.1-.1 0-.2.1-.4.2-.4.2-.9.4-1.3.5-.4.1-1 .2-1.6.3-1 .1-1.9 0-2.7-.3s-1.4-.9-1.9-1.6c-.5-.7-.7-1.6-.9-2.6-.1-1.2 0-2.1.4-3 .4-.8.9-1.4 1.6-1.9s1.6-.7 2.6-.8c.5-.1.9-.1 1.2-.1.3 0 .7 0 1 .1.2 0 .4.1.6.1l.1 1.8-1.2-.3h-1.6c-.6.1-1.1.2-1.5.6s-.7.7-.9 1.2c-.2.5-.2 1.1-.2 1.8s.2 1.3.5 1.8c.2.5.6.9 1 1.2.4.3.9.4 1.5.3.7-.1 1.2-.2 1.7-.4v-2.1l-1.6.2-.2-1.6 3.6-.4z"/></g><path class="st4" d="M81.2 79.4H28.9V53.2c0-5.2 4.2-9.4 9.4-9.4h58.1v26.3c0 5.2-4.2 9.4-9.4 9.4"/><path class="st5" d="M81.2 79.7c-4.4.2-8.7.4-13.1.4l-6.5.1-6.5.1c-4.4.1-8.7.1-13.1.1H27.9v-1.1l-.1-24.8V53c0-.6.1-1.2.1-1.7.8-4.7 4.7-8.4 9.5-8.8h9.4l49.6.1h1V54l-.1 10.3c0 1.7 0 3.4-.1 5.1 0 .9-.1 1.8-.3 2.7-.2.9-.6 1.8-1 2.6-1.8 3.2-5.2 5.2-8.9 5v-.5c1.7-.1 3.2-.6 4.6-1.5 2-1.3 3.4-3.4 3.9-5.8.1-.8.2-1.6.1-2.4 0-1.7-.1-3.4-.1-5.1V43.7l1 1-49.6.1h-9.2c-.9.1-1.8.3-2.6.6-1.7.7-3.1 2-4 3.6-.4.8-.7 1.7-.9 2.6-.1.4-.1.9-.1 1.4v1.5L30 79.4l-1-1h13.1c4.4 0 8.7 0 13.1.1l6.5.1 6.5.1c4.4.1 8.7.2 13.1.4l-.1.6z"/><path class="st1" d="M24.9 101.6c0-1.3-.2-2.6-.5-3.9-.3-1.3-.6-2.5-1.1-3.8-.5-1.2-1-2.4-1.6-3.6l-1.8-3.6c-.2-.3 0-.7.3-.9.3-.1.6-.1.8.2.9 1.1 1.7 2.2 2.4 3.4.7 1.2 1.3 2.5 1.8 3.8.5 1.3.8 2.7 1 4.1.2 1.4.2 2.9 0 4.3-.1.4-.4.6-.8.6-.3 0-.5-.2-.5-.6zM19.1 101.7c-.2-1.5-.7-3-1.4-4.4-.8-1.4-1.7-2.7-2.7-4-.3-.3-.3-.7 0-1s.7-.3 1 0c1.5 1 2.7 2.4 3.5 4 .9 1.6 1.2 3.5 1 5.4 0 .4-.4.6-.7.6-.5-.2-.7-.4-.7-.6z"/><path class="st1" d="M18.5 87.4c-1 0-2-.3-2.7-1-1.5-1.5-1.6-3.9-.1-5.4v-.1c.7-.7 1.7-1.2 2.8-1.2 2.1 0 3.9 1.6 3.9 3.8 0 1.1-.4 2.2-1.2 2.9-.7.7-1.7 1-2.7 1-.4-.1-.6-.4-.6-.8 0-.3.3-.5.6-.6 1.2-.1 2-1.1 2-2.3 0-1.1-.9-2-2-2-.5 0-1 .2-1.4.6-.4.4-.6.9-.6 1.4 0 1.2.9 2.2 2.1 2.3.4 0 .6.4.6.7-.1.4-.4.6-.7.7z"/><g class="st3"><path class="st6" d="M42.7 65c.1-.2.3-.4.5-.5s.4-.2.7-.2c.3 0 .5.1.7.2s.3.3.4.5c.1.2.1.4.1.7 0 .3-.1.5-.2.7s-.3.4-.5.5c-.2 0-.4.1-.6.1-.2 0-.5-.1-.6-.2-.2-.1-.3-.3-.5-.5s-.2-.4-.2-.7.1-.4.2-.6zM54 56.8c.3 0 .7.1 1.1.2.3.1.4.1.5.1l-.4 1.9s-.1-.1-.3-.2c-.2-.1-.5-.2-.8-.3-.3-.1-.7-.1-1.2-.1-.6 0-1.1.1-1.5.4-.4.3-.8.6-1.1 1.2-.3.5-.4 1.1-.4 1.8s.1 1.3.4 1.8c.2.5.6 1 1.1 1.3s1 .5 1.7.5c.3 0 .6 0 .9-.1.3-.1.6-.1.9-.2s.5-.2.6-.3v1.7c-.3.1-.5.2-.7.3-.2.1-.5.1-.8.2-.3.1-.7.1-1 .1-1 0-1.9-.2-2.7-.6-.8-.4-1.4-1-1.8-1.8-.4-.8-.6-1.7-.6-2.7 0-1.1.2-2 .7-2.8.4-.8 1-1.4 1.8-1.8.8-.4 1.6-.6 2.5-.6H54zM58.2 59c.4-.7 1-1.3 1.7-1.7s1.6-.6 2.5-.6c.9 0 1.7.2 2.4.6s1.2 1 1.6 1.8c.4.8.5 1.7.5 2.7 0 1.1-.2 2.1-.7 2.8-.4.8-1 1.3-1.7 1.7s-1.5.7-2.4.7c-.9 0-1.8-.2-2.4-.7s-1.2-1-1.6-1.8c-.4-.8-.5-1.7-.5-2.7 0-1.1.2-2.1.6-2.8zm6.3 1c-.2-.5-.4-.9-.8-1.2-.4-.3-.8-.4-1.3-.4s-.9.1-1.3.4-.7.6-.9 1.1c-.2.5-.3 1.2-.3 2 0 .7.1 1.3.3 1.8.2.5.5.9.8 1.3.4.3.8.5 1.4.5.8 0 1.4-.3 1.8-.9.4-.6.7-1.5.7-2.7-.2-.8-.3-1.4-.4-1.9zM73.3 56.8l1.4 5.4.5 2.3.4-2.3 1.2-5.4h2.9L80.9 67h-2.1l-.5-5.5-.2-3.1-.8 3.1-1.4 5.5h-1.7l-1.6-5.5-.8-3.1-.2 3.1-.5 5.5h-2l1.1-10.2h3.1z"/></g><path class="st7" d="M10 101c9.6-.1 19.3-.2 28.9-.2l28.9-.1h28.9l14.5.1 14.5.2c.4 0 .6.4.6.7 0 .3-.3.5-.6.6l-14.5.2-14.5.1H67.9l-28.9-.1c-9.6 0-19.3-.1-28.9-.2-.4 0-.6-.4-.6-.7 0-.3.3-.5.6-.6z"/></svg>