<svg id="Layer_2" data-name="Layer 2" xmlns="http://www.w3.org/2000/svg" viewBox="0 0 95.23 100.98"><defs><style>.cls-1{fill:none}.cls-2{fill:#c8d7e2}.cls-3{fill:#00a9de}.cls-4{fill:#004f84}.cls-5{fill:#0084c0}.cls-6{fill:#74dcfc}</style></defs><title>features_stats_illo</title><path class="cls-2" d="M287.34 556.11c-2.41.24-4.81.31-7.22.33a58.35 58.35 0 0 1-7.22-.33.67.67 0 0 1 0-1.33 58.35 58.35 0 0 1 7.22-.33c2.41 0 4.81.09 7.22.33a.67.67 0 0 1 0 1.33zM324 469.75c4-.12 8-.21 12-.25h1.54a7.46 7.46 0 0 1 1.68.22 8.44 8.44 0 0 1 6.4 7.13 28.86 28.86 0 0 1 .07 3.13v9c-.06 4-.12 8-.27 12a.67.67 0 0 1-1.33 0c-.15-4-.21-8-.27-12v-9c0-1 0-2.08-.05-2.88a6.5 6.5 0 0 0-4.88-5.52 6.56 6.56 0 0 0-1.3-.19h-1.47c-4 0-8-.13-12-.25a.67.67 0 0 1 0-1.33zM272.91 469.75c2.78-.12 5.56-.19 8.33-.24s5.56-.05 8.33-.08 5.56 0 8.33 0 5.56.12 8.33.27a.67.67 0 0 1 0 1.33c-2.78.15-5.56.21-8.33.27s-5.56.07-8.33 0-5.56 0-8.33-.08-5.56-.12-8.33-.24a.67.67 0 0 1 0-1.33z" transform="translate(-257.91 -460.53)"/><path class="cls-2" d="M272.25 555.45c-.11-4.07-.2-8.15-.24-12.22s-.05-8.15-.08-12.22 0-8.15 0-12.22.12-8.15.27-12.22a.67.67 0 0 1 1.33 0c.15 4.07.21 8.15.27 12.22s.07 8.15 0 12.22 0 8.15-.08 12.22-.13 8.15-.24 12.22a.67.67 0 0 1-1.33 0zM318.37 489.9c1.45-.12 2.9-.19 4.35-.24s2.9-.05 4.35-.08 2.9 0 4.35 0 2.9.12 4.35.27a.67.67 0 0 1 0 1.33c-1.45.15-2.9.21-4.35.27s-2.9.07-4.35 0-2.9 0-4.35-.08-2.9-.12-4.35-.24a.67.67 0 0 1 0-1.33zM313.81 500.35c1.45-.12 2.9-.19 4.35-.24s2.9-.05 4.35-.08 2.9 0 4.35 0 2.9.12 4.35.27a.67.67 0 0 1 0 1.33c-1.45.15-2.9.21-4.35.27s-2.9.07-4.35 0-2.9 0-4.35-.08-2.9-.12-4.35-.24a.67.67 0 0 1 0-1.33zM284.18 521.37c1.79-.12 3.58-.19 5.37-.24s3.58-.05 5.37-.08 3.58 0 5.37 0 3.58.12 5.37.27a.67.67 0 0 1 0 1.33c-1.79.15-3.58.21-5.37.27s-3.58.07-5.37 0-3.58 0-5.37-.08-3.58-.12-5.37-.24a.67.67 0 0 1 0-1.33zM280.69 531.83c1.52-.12 3-.19 4.56-.24s3-.05 4.56-.08 3 0 4.56 0 3 .12 4.56.27a.67.67 0 0 1 0 1.33c-1.52.15-3 .21-4.56.27s-3 .07-4.56 0-3 0-4.56-.08-3-.12-4.56-.24a.67.67 0 0 1 0-1.33zM280.69 542.28A16.94 16.94 0 0 1 284 542a12.6 12.6 0 0 1 3.33.33.69.69 0 0 1 0 1.33 12.6 12.6 0 0 1-3.33.33 16.94 16.94 0 0 1-3.33-.33.68.68 0 0 1 0-1.33z" transform="translate(-257.91 -460.53)"/><path class="cls-3" d="M37.44 82.52h14.4v18.46h-14.4zM59.14 58.46h14.4v42.52h-14.4zM80.83 48.57h14.4v52.41h-14.4z"/><path class="cls-4" d="M37.44 90.85h14.4v10.13h-14.4zM59.14 78.17h14.4v22.81h-14.4zM80.83 69.29h14.4v31.69h-14.4z"/><path class="cls-5" d="M300.47 491.32c1-1.84 2.06-3.64 3.13-5.44s2.18-3.57 3.27-5.36 2.25-3.53 3.38-5.29 2.33-3.48 3.57-5.17a.67.67 0 0 1 1.13.71c-1 1.85-2 3.66-3.1 5.46s-2.17 3.58-3.3 5.34-2.23 3.54-3.41 5.27-2.32 3.48-3.54 5.19a.67.67 0 0 1-1.13-.71zM282.61 486.53a40.68 40.68 0 0 1 4.42 2.74 30.22 30.22 0 0 1 4 3.27.68.68 0 0 1-.77 1.09 30.23 30.23 0 0 1-4.42-2.74 40.69 40.69 0 0 1-4-3.27.67.67 0 0 1 .77-1.09zM264.92 497.86a52.93 52.93 0 0 1 2.94-5.14 39.32 39.32 0 0 1 3.49-4.79.67.67 0 0 1 1.12.73 39.32 39.32 0 0 1-2.94 5.14 52.91 52.91 0 0 1-3.49 4.79.67.67 0 0 1-1.12-.73z" transform="translate(-257.91 -460.53)"/><circle class="cls-6" cx="59.59" cy="4.66" r="2.8"/><circle class="cls-6" cx="317.5" cy="464.65" r="4.11" transform="rotate(-51.77 -285.973 500.135)"/><circle class="cls-6" cx="296.89" cy="497.23" r="4.11" transform="rotate(-51.77 -306.588 532.727)"/><circle class="cls-6" cx="276.66" cy="482.28" r="4.11" transform="rotate(-51.77 -326.825 517.764)"/><circle class="cls-6" cx="262.03" cy="503.68" r="4.11" transform="rotate(-51.77 -341.45 539.17)"/></svg>