<svg width="1074" height="321" viewBox="0 0 1074 321" xmlns="http://www.w3.org/2000/svg"><title>trusted-by-brands</title><g fill="none" fill-rule="evenodd"><path fill="#00AADC" d="M0 0h2893v1029H0z"/><path d="M748.946 51.787a23.182 23.182 0 0 0 4.53-13.795c0-12.85-10.464-23.313-23.314-23.313-12.858 0-23.314 10.462-23.314 23.312 0 12.86 10.458 23.316 23.314 23.316 5.053 0 9.74-1.616 13.565-4.368l5.842 5.845 5.19-5.183-5.814-5.815zm-5.275-5.274L735.06 37.9l-5.18 5.19 8.566 8.57a15.923 15.923 0 0 1-8.282 2.31c-8.814 0-15.977-7.164-15.977-15.978 0-8.805 7.163-15.977 15.977-15.977 8.803 0 15.976 7.172 15.976 15.977a15.9 15.9 0 0 1-2.467 8.52zm220.214-30.678v7.41H950.02v37.067h-7.507V23.246h-13.86v-7.41h35.232zm-115.902 0h-9.016l-17.14 44.477h7.867l3.212-8.666h21.138l3.21 8.666h7.87l-17.14-44.477zm-12.218 28.878l7.714-20.075 7.703 20.075h-15.418zm178.95-21.467L989.852 52.8h24.863v7.512H980.06V52.41l24.952-29.164h-23.22v-7.338h32.923v7.338zm-207.427-7.411v28.138c0 9.54-7.75 17.298-17.288 17.298s-17.298-7.758-17.298-17.297V15.835h7.502v28.138c-.166 5.492 4.3 9.962 9.796 9.962 5.487 0 9.952-4.468 9.844-9.962V15.835h7.444zm96.966 29.413c5.102-2.54 8.596-7.777 8.596-13.813 0-8.152-6.723-15.435-15.094-15.6h-16.47v44.477h7.51V46.915h6.802l15.48 15.685 5.218-5.156-12.042-12.196zm-7.044-5.67h-8.414V23.29h8.414c4.578 0 8.302 3.65 8.302 8.145 0 4.494-3.724 8.144-8.302 8.144zM520.087 17.63l-4.424-.02h-6.856c-.477 0-4.154.036-4.154.036l-.065 5.946-.67.02.04-6.683-.024-2.747c2.336.114 10.78.19 19.54.19 10.216 0 16.798-.105 19.38-.18l-.03 3.04.054 6.76-.696-.007c.006-.552-.114-2.795-.106-3.014.003-.082-.147-3.095-.168-3.32l-2.932-.042h-8.79l-3.367.013.004 41.7c0 .057.063 2.733.075 3.29.337.047 3.594.272 4.183.272l.23-.003v1.138c-.175 0-.393.018-.574.017-1.85-.02-4.838-.242-6.96-.242-2.09 0-5.036.205-7.216.238a18.06 18.06 0 0 1-.672-.017l-.005-1.21.36-.01c.92-.037 3.188-.19 3.78-.24l.09-.013-.03-44.912zm39.467 46.437c-1.714 0-4.63-.285-6.813-.285-2.158 0-5.09.285-7.2.285-.178 0-.494-.04-.668-.04v-1.185c.417-.008 2.282-.178 2.8-.217.607-.044 1.17-.074 1.42-.155l.01-3.64c.025-7.652.07-29.28-.002-39.064-.007-1.033-.014-3.65-.014-4.03-.395-.038-.947-.09-1.344-.143-.494-.027-2.53-.22-2.88-.24l-.012-1.185c2.022 0 5.022.205 7.458.205 2.326 0 5.484-.205 7.874-.205l-.005 1.234c-.38.026-1.3.085-1.332.087-.697.066-2.646.286-3.125.32v3.807c-.002 8.763-.01 31.687-.014 39.405v2.503c0 .59.003.945.01.966.01.046 1.233.16 1.515.177.54.062 2.758.16 2.825.175h.15l-.002 1.185c-.146 0-.5.04-.65.04zm15.393-33.28s-1.104 6.1-2.697 14.71c-.844 4.65-2.59 16.282-2.71 17.05 1.01.15 2.992.312 3.532.294.124 0 .337.005.492.005l-.002 1.18c-.225.03-.75.032-.773.032-1.912-.04-3.29-.186-5.352-.186-.543 0-3.41.15-4.42.185-.422.018-1.018-.028-1.13-.023v-1.166c.1 0 .3-.042.427-.045.914-.04 2.32-.182 3.512-.337.096-.573 1.128-6.306 1.455-8.338 1.265-6.722 4.997-29.18 5.464-32.21.41-3.27.885-7.337.928-7.786.99.016 2.696-.023 2.696-.023s3.302 10.26 3.838 11.76c.537 1.504 10.628 27.465 10.628 27.465s4.736-11.185 8.957-23.188c.854-2.43 1.976-5.6 2.802-8.165l2.537-7.875h2.598s.643 4.586.872 6.627c.663 5.942 5.002 30.09 6.527 38.03.378 1.988.667 3.707.667 3.707.448.03 2.202.204 3.242.29.216.02.8.052.933.052l.007 1.196s-.475.026-.734.026c-2.326-.016-5.952-.225-8.19-.225-1.99 0-3.903.17-5.894.213-.338.007-.68-.01-1.025-.01V62.85a4.52 4.52 0 0 1 .415-.013c.97-.044 3.55-.298 3.805-.31 0-.434-.14-1.94-.35-3.476-.145-1.084-.39-2.937-.652-4.764-.568-3.55-3.19-18.267-3.97-22.353-.128-.67-.208-1.044-.208-1.044s-8.125 20.843-9.764 24.95c-.16.403-.273.687-.312.782-1.564 3.955-2.878 7.48-2.878 7.48l-2.312-.012-12.662-32.545-.3-.76zm80.39-6.865h-.67l-.007-.35c-.07-.868-.216-3.326-.402-5.394-.016-.184-.046-.328-.046-.328-.402-.013-2.037-.066-2.063-.093-.028-.025-1.33-.043-1.358-.057-.013-.007-4.29-.032-8.697-.035-3.01-.003-5.968.015-7.783.015-.447 0-2.047.062-2.047.062l-.01 19.622 12.6.042c.06 0 3.336-.102 3.416-.1.2.002 2.45-.13 2.536-.16 0 0 .033-.205.086-.354.182-1.188.414-2.316.47-3.196 0 0 .06-.377.064-.632l.716-.016c0 .092.036.318.033.638-.006 1.183-.092 3.638-.09 5.25.004 2.316.067 4.41.08 5.457.01.3-.01.778-.01.778h-.786c-.014-.11-.027-.225-.044-.346a69.834 69.834 0 0 0-.46-3.642c-.008-.07-.047-.315-.064-.473a70.537 70.537 0 0 0-2.027-.08c-.245-.01-3.316-.03-6.773-.036-1.416-.002-3.96.065-5.04.063-1.263 0-3.35.08-4.71.13l.013 17.793.054 2.293 7.65.132 10.892-.01c.05 0 2.494-.097 3.257-.082.16.003.487-.026.487-.026.073-.575.162-1.74.25-2.85.01-.132.28-3.084.28-3.877l.67-.008c0 .75-.142 10.073-.142 10.073-1.228 0-4.996-.004-9.65-.07-2.822-.045-5.967-.042-9.07-.088-2.516-.036-5.004-.126-7.27-.123-3.226.003-6.387.216-7.614.218-.28 0-.775-.02-.883-.02v-1.173h.226c.756-.004 2.982-.137 4.143-.353 0-.235.076-3.137.076-3.197l-.005-38.5c0-1.778-.03-4.745-.03-5.008-.658-.078-.892-.118-1.03-.148-.697-.098-2.07-.218-2.806-.27a3.11 3.11 0 0 1-.55-.042s-.003-1.152-.01-1.17c.168.01.512-.014 1.128-.01 1.3.005 3.69.196 6.61.2 1.834 0 4.794-.09 6.914-.115 3.025 0 5.32-.03 8.25-.048 4.78-.033 8.863-.067 10.46-.076l.72-.003v.317c0 .37-.018 1.02-.012 1.817.017 2.48.077 6.384.077 7.658zM812.6 237.793h-13.987V225h43.34v12.793H827.97v37.12H812.6v-37.12zM844.368 225h42.072v12.793h-26.694v6.22h26.694V255.9h-26.694v6.22h26.7v12.793H844.37V225zm60.189 37.12h6.014c9.58 0 10.98-7.76 10.98-12.45 0-3.14-.983-11.877-12.1-11.877h-4.893v24.328zM889.18 225h25.235c16.635 0 22.514 12.304 22.514 24.883 0 15.315-8.11 25.03-25.518 25.03H889.18V225zM702.237 260.462c.134-.028.276-.086.418-.085 3.784.026 7.575-.073 11.35.122 4.594.236 7.527 4.864 5.888 9.068-.232.596-.62 1.155-1.035 1.648-.416.495-.956.885-1.482 1.357.36.21.69.397 1.015.597 2.605 1.612 3.808 4.332 3.258 7.36-.54 2.972-2.863 5.358-5.757 5.89a8.298 8.298 0 0 1-1.506.16c-3.785.014-7.57.008-11.356.008h-.79v-26.126zm5.422 14.674c-.023.337-.05.57-.05.804-.005 2.056-.018 4.114.025 6.17.004.18.39.495.604.502 1.488.043 2.98.076 4.47.007a3.779 3.779 0 0 0 3.596-3.655c.057-1.868-1.36-3.67-3.204-3.802-1.775-.127-3.565-.027-5.443-.027zm.016-10.71v6.633c1.606 0 3.156.13 4.673-.037 1.593-.177 2.717-1.717 2.69-3.3-.03-1.603-1.273-3.137-2.862-3.27-1.47-.126-2.96-.028-4.502-.028zM699 287.14l-16.63-15.154v14.523h-5.393v-26.602l16.554 15.08v-14.48H699v26.632m5.845-37.716c-1.25-2.86-2.502-5.717-3.753-8.575-2.458-5.616-4.942-11.22-7.366-16.85-2.4-5.576 1.616-11.467 7.666-11.303 4.85.133 8.295 4.567 7.548 9.6-1.1 7.42-2.13 14.85-3.195 22.275-.232 1.62-.48 3.236-.72 4.854h-.18m9.952 3.521c.137-.363.225-.634.34-.893 3.557-8.092 7.116-16.183 10.677-24.274 1.376-3.127 4.532-5.076 7.853-4.853 3.457.23 6.325 2.525 7.262 5.807.937 3.29-.256 6.795-3.118 8.746-7.532 5.133-15.097 10.218-22.65 15.32-.07.046-.157.064-.365.147m-.304-3.513l-.675-4.66c-.875-6.074-1.77-12.145-2.613-18.223-.33-2.38.013-3.135 1.958-4.066.23-.11.43-.28.645-.422l-.024-.308c-.734-.042-1.47-.108-2.204-.12-1.18-.022-1.18-.008-1.148-1.185.09-3.18 2.104-6.1 5.14-7.214 3.24-1.188 6.225-.6 8.647 1.864 2.423 2.465 3.032 5.485 1.677 8.666-3.057 7.178-6.242 14.3-9.374 21.447-.62 1.412-1.237 2.825-1.856 4.237l-.175-.018m-9.826 3.574l-12.93-8.748c-3.33-2.254-6.69-4.465-9.98-6.776-2.75-1.93-3.87-4.692-3.286-7.955.605-3.387 2.73-5.57 6.1-6.38 3.65-.876 7.472.94 8.994 4.35 3.723 8.344 7.365 16.722 11.037 25.087.03.074.026.164.064.422m8.904 2.546c2.754-1.85 5.27-3.542 7.785-5.233 4.55-3.057 9.095-6.117 13.647-9.17 3.146-2.11 6.827-2.07 9.662.092 2.73 2.08 3.82 5.575 2.766 8.868-1.01 3.156-4.042 5.477-7.408 5.493-8.584.04-17.168.015-25.752.013-.14 0-.28-.024-.7-.062m-7.74.064h-.976c-8.316 0-16.634.01-24.95-.004-4.615-.007-8.187-3.53-8.135-8.062.035-3.08 1.433-5.456 4.132-6.936 2.656-1.456 5.46-1.5 7.99.16 7.247 4.756 14.408 9.643 21.6 14.48.07.048.12.127.34.363m36.894 10.254c-4.983-2.822-9.57-1.05-11.937 1.744-2.72 3.208-2.925 7.7-.527 11.094 2.727 3.86 6.735 4.694 12.452 2.52 0 1.666.024 3.292-.032 4.916-.007.192-.423.446-.695.543-7.347 2.622-15.906-1.554-18.385-8.956-2.432-7.262 1.704-15.027 9.32-17.468 3.004-.964 6.018-1.043 9.04-.036.562.187.803.442.78 1.073-.05 1.478-.016 2.96-.016 4.57M206.06 251.12v9.157c0 3.8.046 7.598-.027 11.396-.02 1.116.36 1.415 1.397 1.414 1.554 0 3.11.093 4.658.237.312.03.586.458.878.702-.29.2-.577.57-.867.572-6.592.033-13.182.038-19.773-.008-.35-.003-.694-.5-1.042-.768l.234-.5c1.905-.085 3.81-.21 5.718-.237.937-.013 1.38-.213 1.377-1.303-.035-14.51-.024-29.017-.027-43.525 0-.227-.033-.452-.07-.9-1.99-.072-3.98-.134-5.967-.22-1.05-.044-1.05-.063-.99-1.405 1.717 0 3.446-.007 5.174 0 6.132.03 12.268-.053 18.393.16 2.242.076 4.524.658 6.67 1.365 2.58.85 4.263 2.79 4.943 5.466.777 3.065.867 6.154.03 9.225-.92 3.38-3.115 5.627-6.33 6.91-.966.384-1.96.69-3.305 1.16.915.208 1.5.34 2.083.474 3.783.862 5.68 2.81 6.322 6.647a662.335 662.335 0 0 1 2.245 14.226c.182 1.258.578 1.833 1.955 1.76 1.402-.076 2.82.13 4.53.558-.297.312-.593.892-.896.896-4.113.06-8.228.04-12.48.04-.357-2.28-.704-4.482-1.045-6.685-.574-3.706-1.12-7.416-1.728-11.116-.147-.895-.443-1.775-.762-2.627-.666-1.782-1.962-2.938-3.868-3.04-2.407-.13-4.827-.033-7.43-.033zm.072-1.617c2.755-.156 5.45-.137 8.088-.507 2.638-.37 4.343-2.136 4.98-4.7.964-3.867 1.02-7.786.055-11.668-.455-1.83-1.428-3.373-3.2-4.24-3.19-1.564-6.573-.943-9.923-1.062v22.177zm-15.232.291c-.144 5.663-.868 11.17-3.61 16.207-2.853 5.243-7.32 8.266-13.278 8.683-2.84.2-5.792.127-8.57-.432-5.615-1.13-9.332-4.765-11.544-9.976-2.198-5.178-2.483-10.646-2.338-16.16.105-4 .745-7.91 2.24-11.653 2.595-6.49 7.3-10.233 14.29-10.98 5.77-.62 11.27-.026 15.848 4.014 3.68 3.247 5.362 7.568 6.13 12.264.435 2.653.565 5.356.832 8.036zm-31.447.14l.46.037c0 1.785-.08 3.573.017 5.35.227 4.203.48 8.407 2.14 12.37.884 2.11 2.27 3.74 4.35 4.73 5.977 2.847 12.324.153 14.354-6.097.24-.738.442-1.493.578-2.256 1.41-7.942 1.363-15.935.615-23.925-.223-2.39-.754-4.792-1.48-7.083-1.156-3.656-3.787-5.765-7.65-6.09-1.443-.12-2.92.005-4.37.138-2.29.21-4.144 1.36-5.29 3.282-.94 1.58-1.856 3.344-2.126 5.125-.72 4.778-1.09 9.61-1.597 14.42zm213.867-.394v23.425c.514.023.96.06 1.404.06 3.616.005 7.232-.037 10.847.028 1.014.018 1.43-.35 1.748-1.267 1.646-4.75 3.37-9.474 5.037-14.216.288-.816.6-1.458 1.812-1.076L392.8 274.52h-34.393c-.276-.765-.19-1.225.826-1.244 1.738-.034 3.474-.158 5.21-.208.742-.02 1.173-.174 1.172-1.078-.024-14.646-.02-29.293-.024-43.94 0-.175-.054-.35-.148-.913-2.008 0-4.05-.012-6.09.006-.876.008-1.31-.274-.94-1.312H392.6v16.392c-.942.292-1.3-.334-1.57-1.218a784.087 784.087 0 0 0-3.92-12.567c-.142-.44-.698-1.06-1.07-1.066-4.118-.064-8.237-.024-12.356-.007-.084 0-.168.066-.344.14v20.223h7.686c.26-2.826.553-5.637.76-8.454.07-.944.447-1.208 1.397-.927v21.17c-.353.032-.73.067-1.254.117l-.91-10.09h-7.7m-58.755-22.432v-1.386c2.785 0 5.52-.016 8.255.006 1.595.013 3.463-.41 4.708.276 1.19.654 1.742 2.48 2.553 3.804 5.568 9.09 11.13 18.184 16.693 27.275.262.428.535.848.982 1.558v-30.9c-1.87-.185-3.764-.423-5.666-.537-.963-.057-1.145-.49-.998-1.388h15.7c.29.887.13 1.34-.922 1.398-1.552.085-3.094.36-4.646.43-.988.047-1.186.476-1.18 1.37.035 5.127.017 10.255.016 15.382v30.333c-1.098.44-1.456-.295-1.864-.95l-18.72-30.056c-2.01-3.223-4.012-6.45-6.022-9.67-.203-.327-.44-.633-.838-1.203v39.697c1.836.195 3.68.416 5.53.575.873.075 1.42.325 1.152 1.418H313.42c-.455-.943-.11-1.302.784-1.38 2.003-.18 4.004-.384 6.166-.593V230.497c0-2.27-.46-2.77-2.755-3.033-.996-.114-1.992-.23-3.05-.35m-1.77-1.277c.232.965-.045 1.34-.983 1.4-1.686.103-3.363.34-5.242.542v1.622c0 11.35.02 22.703-.008 34.053-.018 6.756-2.79 10.09-9.45 11.11-4.086.624-8.22.6-12.27-.43-5.382-1.367-8.214-4.725-8.427-10.26-.172-4.477-.1-8.966-.108-13.45-.013-7.096-.003-14.19-.003-21.285v-1.767c-1.896-.085-3.664-.192-5.433-.232-.91-.02-1.266-.34-.91-1.327h21.373c.35.854.182 1.315-.812 1.31-2.094-.014-4.19-.005-6.372-.005-.036.787-.073 1.23-.074 1.67-.003 11.352-.002 22.704 0 34.055 0 .366.007.732.022 1.098.204 5.078 2.058 7.313 7.09 7.903 2.422.284 4.952.194 7.37-.164 3.384-.5 5.337-2.92 5.617-6.33.052-.638.06-1.28.06-1.92.005-11.306.004-22.61.004-33.916v-1.746l-5.636-.672-.174-1.26h14.37m-44.303-.036l.428 16.747c-1.18.352-1.576-.36-1.858-1.237-1.37-4.264-2.764-8.52-4.084-12.8-.274-.886-.64-1.25-1.606-1.215-2.187.075-4.378.023-6.66.023v45.61c2.176.126 4.31.282 6.447.357.966.035 1.02.487.8 1.22h-22.498l-.248-.433c.343-.26.67-.713 1.033-.745 1.82-.16 3.65-.247 5.48-.28.842-.014 1.225-.218 1.224-1.16-.025-14.598-.02-29.197-.023-43.796 0-.18-.042-.36-.092-.75-2.49 0-4.988-.036-7.483.05-.284.01-.655.666-.797 1.087a888.338 888.338 0 0 0-4.297 13.018c-.293.918-.706 1.325-1.56 1.005 0-3.046-.02-6.056.005-9.066.018-2.012.188-4.027.122-6.036-.043-1.306.328-1.708 1.674-1.702 10.8.054 21.602.03 32.402.033.492 0 .983.042 1.594.07m-139.903 1.518v20.51c2.446 0 4.812.04 7.173-.053.265-.01.666-.743.726-1.18.333-2.446.618-4.9.84-7.36.086-.962.535-1.114 1.41-.936v21.23l-1.303.077-1.093-10.077h-7.76v23.426l7.657.37.086 1.227c-.477.027-.877.07-1.277.07-6.592.004-13.185.003-19.777.003-.14 0-.3.047-.41-.01-.343-.183-.667-.404-1-.61.304-.237.59-.65.91-.68 1.503-.142 3.015-.178 4.523-.258.45-.023.9-.064 1.453-.105V227.51c-2.25-.243-4.496-.477-6.736-.76-.093-.012-.126-.49-.22-.893h33.865v16.62c-.826.397-1.157-.113-1.42-.928-1.398-4.352-2.85-8.688-4.232-13.045-.277-.873-.663-1.227-1.63-1.212-3.885.06-7.77.025-11.787.025" fill="#33BBE3"/><g fill="#33BBE3"><path d="M89.265 0c.95.105 1.903.204 2.853.317 3.99.474 7.81 1.567 11.41 3.347 9.812 4.854 16.39 12.508 19.662 22.967 1.232 3.942 1.798 8.003 1.545 12.118-.872 14.182-7.553 24.77-19.962 31.684-4.214 2.348-8.797 3.668-13.595 4.1-10.134.913-19.27-1.702-27.215-8.107C56.64 60.52 52.2 52.857 50.58 43.595c-.307-1.764-.34-3.575-.504-5.364-.01-.12-.05-.237-.076-.356v-1.07c.026-.152.06-.303.077-.457.235-2.136.288-4.31.73-6.403 2.228-10.505 7.924-18.647 17.008-24.376C72.36 2.702 77.335.974 82.675.32 83.62.206 84.57.107 85.52 0h3.745zM61.652 25.476a3.431 3.431 0 0 0 4.41 3.315c4.334-1.267 8.77-1.84 13.263-2.005 5.446-.2 10.855.184 16.203 1.263 4.906.99 9.623 2.515 13.982 5.04.475.276 1.062.45 1.61.488 1.583.11 3.027-.953 3.48-2.455.456-1.516-.126-3.18-1.567-3.95-2.005-1.067-4.028-2.137-6.135-2.977-7.767-3.098-15.91-4.3-24.22-4.37-3.126-.026-6.26.245-9.38.507-3.105.262-6.152.91-9.14 1.812-1.534.462-2.506 1.767-2.506 3.334zm18.452 7.162c-1.135.084-3.34.204-5.533.423-2.853.286-5.652.887-8.393 1.732-1.312.404-2.13 1.734-2.01 3 .175 1.813 2.034 3.04 3.82 2.485 4.124-1.278 8.375-1.788 12.68-1.83 2.762-.025 5.51.182 8.246.6 5.733.876 11.174 2.58 16.172 5.583 1.456.874 3.2.42 4.035-1.003.8-1.363.353-3.097-1.08-3.93-1.29-.75-2.595-1.49-3.946-2.12-7.258-3.4-14.94-4.858-23.99-4.94zm1.55 12.162c-.8.035-1.6.074-2.4.105-3.942.15-7.823.745-11.664 1.626-1.3.3-2.1 1.49-1.84 2.702.28 1.293 1.5 2.09 2.84 1.787a65.337 65.337 0 0 1 9.058-1.41c3.475-.29 6.94-.217 10.388.29 4.733.696 9.18 2.22 13.282 4.708 1.158.703 2.527.35 3.204-.772.66-1.097.32-2.437-.823-3.15-.59-.37-1.193-.713-1.804-1.04-6.32-3.395-13.117-4.792-20.24-4.846zm217.419-11.633c-.162.464-.277.952-.495 1.388-.875 1.747-2.838 2.602-4.728 2.095-1.842-.495-3.095-2.232-3.004-4.166.09-1.9 1.526-3.503 3.427-3.822 2.255-.378 4.278 1.046 4.7 3.306.016.082.066.157.1.236v.963zm-4.084-4.096c-2.076-.006-3.646 1.553-3.65 3.627-.006 2.036 1.575 3.642 3.59 3.65 1.976.008 3.61-1.608 3.618-3.58.01-2.13-1.492-3.69-3.56-3.696zm-34.832 5.409v19.416c0 .79-.016.804-.814.804-1.694 0-3.388.002-5.08 0-.694 0-.757-.066-.757-.777V34.48h-2.415c-.714-.002-.773-.058-.774-.754-.002-1.444 0-2.888 0-4.332 0-.675.123-.794.82-.797.765-.003 1.53 0 2.318 0 .053-.99.057-1.948.164-2.896.286-2.52 1.223-4.677 3.562-5.983 1.077-.6 2.256-.876 3.47-.96 1.897-.127 3.77.045 5.603.58.393.115.55.302.544.713-.017 1.48-.003 2.96-.01 4.44 0 .625-.17.697-.8.567-1.022-.21-2.054-.457-3.09-.504-1.624-.074-2.535.752-2.748 2.36-.074.556-.012 1.13-.012 1.762h.574c2.89 0 5.777.02 8.665-.015.63-.007.93.172 1.16.783 2.045 5.42 4.128 10.827 6.2 16.237.083.212.177.42.32.76.41-1.16.784-2.196 1.147-3.235 1.634-4.662 3.27-9.323 4.89-13.99.13-.372.3-.55.716-.547 1.872.017 3.744.004 5.616.01.584 0 .75.23.543.764-3.426 8.85-6.834 17.708-10.307 26.54-.496 1.26-1.227 2.452-2.002 3.57-1.285 1.857-3.17 2.757-5.403 2.91-2.394.167-4.68-.245-6.818-1.377-.59-.31-.647-.448-.375-1.05a801.452 801.452 0 0 1 1.725-3.786c.24-.525.362-.516.913-.326.883.304 1.777.618 2.692.772 1.338.224 2.276-.442 2.945-1.58.318-.54.392-.992.125-1.622a2788.75 2788.75 0 0 1-7.75-18.55c-.145-.353-.317-.48-.7-.474-1.584.022-3.17.01-4.858.01M171.57 51.772v9.663c0 .898-.034.93-.938.93-1.658 0-3.316.002-4.973 0-.644-.002-.742-.102-.742-.748V29.374c0-.637.08-.725.7-.727 1.747-.005 3.494-.005 5.24 0 .63.002.706.085.71.717.004.81 0 1.62 0 2.533.52-.497.928-.94 1.387-1.32 3.554-2.933 7.498-3.157 11.568-1.396 3.983 1.725 6.17 4.98 7.002 9.157.638 3.208.464 6.393-.83 9.43-1.82 4.28-5.074 6.81-9.694 7.39-3.412.428-6.45-.526-8.922-3.02a10.874 10.874 0 0 0-.346-.333c-.02-.02-.064-.014-.163-.032zm6.695-2.426c2.045-.033 3.728-.714 5.008-2.242 2.174-2.595 2.44-6.994.626-9.926-2.477-4-8.032-4.255-10.87-.5-2.104 2.783-2.15 7.083-.08 9.897 1.33 1.808 3.135 2.73 5.315 2.77zm-28.933-29.412c4.447.04 8.438 1.37 11.95 4.105.54.42.556.55.172 1.09-.906 1.28-1.813 2.56-2.72 3.837-.467.66-.54.67-1.18.21-1.926-1.384-3.985-2.492-6.347-2.912-1.774-.315-3.546-.384-5.222.464-1.53.773-2.188 2.16-1.82 3.818.188.858.708 1.525 1.478 1.86 1.38.602 2.784 1.177 4.227 1.594 2.32.67 4.696 1.145 6.907 2.16 1.42.652 2.74 1.446 3.82 2.596 1.497 1.592 2.087 3.54 2.13 5.665.057 2.758-.706 5.246-2.665 7.268-1.708 1.765-3.84 2.772-6.226 3.17-6.564 1.097-12.37-.615-17.44-4.886-.535-.45-.534-.587-.077-1.132 1.02-1.215 2.037-2.43 3.055-3.646.473-.564.575-.57 1.16-.08 2.115 1.772 4.412 3.2 7.17 3.724 1.892.36 3.79.47 5.644-.178 2.06-.722 3.026-2.474 2.49-4.392-.21-.75-.688-1.276-1.32-1.68-1.418-.905-3.036-1.275-4.625-1.732-2.15-.617-4.312-1.204-6.42-1.943-1.658-.58-3.143-1.526-4.285-2.908-1.66-2.01-2.047-4.382-1.82-6.885.422-4.61 3.788-7.75 8.308-8.782a9.94 9.94 0 0 1 1.207-.215c.814-.08 1.63-.13 2.447-.19m58.184 8.122c6.445.084 11.823 4.145 13.4 10.196 1.983 7.595-2.854 15.29-10.566 16.732-5.256.982-9.836-.353-13.45-4.37-2.57-2.858-3.552-6.298-3.235-10.125.474-5.725 4.658-10.806 10.892-12.07.97-.198 1.972-.247 2.96-.364zm7.154 14.43c0-2.522-.483-4.093-1.463-5.465-2.677-3.744-8.3-3.995-11.2-.468-1.632 1.987-1.995 4.31-1.584 6.79.79 4.773 5.892 7.456 10.235 5.333 2.837-1.387 3.92-3.867 4.013-6.188zm10.272-8.006c-.868 0-1.683.002-2.498-.002-.62-.003-.71-.094-.712-.718-.003-1.462-.003-2.923 0-4.385.002-.616.106-.723.713-.728.815-.007 1.63-.002 2.496-.002v-.642c0-1.87.007-3.743-.007-5.615-.003-.483.185-.668.667-.665 1.782.015 3.565.016 5.347 0 .5-.005.652.214.65.68-.014 1.87.013 3.744-.02 5.615-.008.53.162.647.664.64 1.8-.03 3.602-.016 5.402-.012.65.002.735.092.736.752.003 1.444.002 2.888 0 4.332 0 .69-.062.748-.778.75-1.836 0-3.672.01-5.508-.01-.405-.004-.51.123-.51.518.014 3.797.006 7.594.013 11.39 0 .337.033.68.104 1.008.24 1.103 1.032 1.683 2.317 1.724a7.344 7.344 0 0 0 3.316-.677c.732-.333.958-.188.96.63 0 1.37.02 2.744-.02 4.116-.007.245-.198.6-.406.71-2.884 1.493-5.9 1.694-8.94.618-2.217-.785-3.346-2.567-3.76-4.808a14.484 14.484 0 0 1-.22-2.548c-.02-3.993-.008-7.986-.008-11.98v-.693m16.07 7.194V29.477c0-.76.07-.83.82-.83 1.693-.003 3.387-.004 5.08 0 .687 0 .778.09.778.768v24.55c0 .656-.08.733-.743.734-1.712.002-3.423 0-5.135 0-.763 0-.8-.04-.8-.834V41.672m3.41-24.475a4.138 4.138 0 0 1 4.125 4.15c-.002 2.33-1.887 4.15-4.242 4.152-2.204.002-4.192-1.964-4.087-4.35.097-2.18 1.928-3.97 4.205-3.953"/><path d="M293.33 30.42c.732 0 1.425-.03 2.115.01.735.042 1.245.442 1.374.99.175.748-.048 1.202-.88 1.732l.514.735c.172.245.347.488.528.74-.702.24-.906.18-1.278-.348-.113-.162-.246-.312-.332-.485-.255-.513-.653-.645-1.234-.463v1.376h-.808V30.42zm.84 2.098c.485-.03.938.004 1.35-.11.193-.054.434-.4.422-.6-.012-.2-.287-.502-.494-.547-.4-.086-.832-.025-1.278-.025v1.283z"/></g><g fill="#33BBE3"><path d="M342.32 158.93c-4.384 10.887-12.485 14.787-25.352 12.213-4.938-.987-9.457-2.816-13.336-6.55 2.022-2.93 4.02-5.823 6.108-8.845 4.55 3.982 9.547 6.064 15.41 5.632.874-.065 1.905-.073 2.562-.535.97-.68 2.103-1.658 2.314-2.683.12-.588-1.32-1.93-2.275-2.226-3.108-.965-6.33-1.563-9.485-2.388a46.025 46.025 0 0 1-5.07-1.628c-4.996-1.954-7.938-5.59-8.093-11.004-.154-5.426 2.38-9.516 7.145-12.124 8.186-4.48 21.002-2.846 28.692 3.785l-5.71 7.806c-4.088-1.32-7.88-2.55-11.68-3.763-.37-.12-.784-.2-1.17-.172-2.022.14-4.632-.266-5.147 2.35-.564 2.86 2.306 2.774 4.008 3.304 2.637.82 5.392 1.252 8.087 1.887 6.336 1.49 11.392 4.46 12.994 11.367v3.572M186.964 175c-1.608-.397-3.23-.748-4.822-1.2-12.794-3.628-20.41-16.332-17.593-29.318 2.644-12.196 15.073-20.722 27.706-19.01 12.69 1.72 21.89 11.73 22.052 23.99.168 12.684-8.53 22.88-21.286 24.98-.45.075-.865.368-1.296.558h-4.762zm2.26-9.62c9.837-.317 17.416-4.608 22.388-13.165.613-1.054.792-3 .226-4-4.977-8.804-12.655-13.548-22.77-13.5-9.953.045-17.634 4.6-22.582 13.328-.544.96-.546 2.745-.01 3.713 4.912 8.89 12.59 13.333 22.748 13.624zm75.256-38.293c9.233 0 18.257-.42 27.224.123 8.336.505 13.087 8.013 10.013 15.134-.984 2.278-3.105 4.066-4.778 6.167 4.578 2.344 7.108 6.404 6.386 12.047-.754 5.895-5.025 10-10.987 10.15-9.2.23-18.41.06-27.86.06v-43.68zm11.466 33.673c4.202 0 8.256.243 12.25-.146 1.21-.12 3.04-1.91 3.15-3.07.105-1.134-1.53-3.405-2.56-3.503-4.247-.402-8.554-.168-12.84-.168v6.888zm-.003-17.246c4.004 0 7.862.22 11.665-.14 1.084-.103 2.767-1.876 2.794-2.92.028-1.093-1.52-3.095-2.525-3.193-3.892-.375-7.842-.152-11.934-.152v6.406zM253.876 155.3l9.27 4.317c-2.53 7.316-10.94 13.27-23.28 11.775-10.955-1.326-19.076-9.702-19.99-20.947-.89-10.958 6.06-20.452 17.07-23.322 11.418-2.978 21.812 1.233 26.437 10.997l-9.457 4.503c-6.665-7.2-13.18-8.12-18.61-2.732-4.903 4.868-4.738 13.84.342 18.47 5.43 4.948 12.175 3.867 18.218-3.06"/><path d="M189.205 163.065c-7.538.003-13.532-5.876-13.46-13.2.07-7.247 5.965-12.926 13.42-12.93 7.664-.006 13.45 5.695 13.383 13.183-.066 7.348-5.835 12.945-13.343 12.947"/></g><g fill="#33BBE3"><path d="M620.76 231.95c-1.648.432-3.277.953-4.944 1.28-9.715 1.903-19.516 3.23-29.407 3.613-8.204.32-16.43.565-24.63.33-9.43-.268-18.862-.9-28.26-1.74-12.117-1.08-24.14-2.917-35.994-5.71-.78-.184-1.304.01-1.868.546-7.684 7.306-15.385 14.596-23.086 21.886-7.702 7.29-15.405 14.576-23.122 21.85-.274.258-.684.446-1.06.514-1.023.185-2.062.288-3.36.46l13.895-42.317c-4.612 1.582-9.13 2.945-13.863 3.215l-.15-.45c1.337-1.07 2.824-2.006 3.972-3.253 1.14-1.238 1.938-2.79 2.996-4.367 5.992 1.593 11.944.352 18.074-2.053l-12.438 35.186c.058.033.115.064.173.095l6.218-6.74c8.606-9.332 17.213-18.663 25.813-28 .367-.4.665-.862.994-1.295h.45c.195.083.383.202.588.245 9.644 2.02 19.36 3.617 29.173 4.49 7.988.71 15.992 1.317 24.002 1.682 9.447.43 18.89.098 28.27-1.25 5.726-.82 11.39-1.916 16.854-3.9.44-.16 1.104-.095 1.517.132 5.78 3.172 12.01 4.65 18.543 4.885 3.163.114 6.336-.05 9.505-.06.38 0 .763.18 1.144.277v.45"/><path d="M511.744 253.434c3.112 1.38 5.96 2.085 8.54-.445 1.764-1.734 2.217-4.992 1.13-7.323-1.134-2.438-4.32-4.028-7.778-3.816-.805 2.697-1.625 5.433-2.438 8.17-1.908 6.43-3.815 12.86-5.717 19.293-.41 1.396-.347 1.494 1.024 1.86.5.133 1.003.26 1.915.494-.51.475-.832 1.034-1.16 1.04-3.92.06-7.84.04-11.774.04-.08-.824.234-1.275 1.006-1.377 1.47-.194 2.048-1.13 2.442-2.495 2.51-8.698 5.103-17.372 7.666-26.055.084-.283.142-.573.315-1.28-1.497.698-2.833 1.142-3.968 1.89-1.41.932-1.644 2.7-.826 4.315.647 1.273.29 1.855-1.156 1.885-2.826.06-4.463-2.598-3.306-5.375.606-1.453 1.726-2.41 3.076-3.13 2.25-1.2 4.703-1.677 7.206-1.855 4.784-.34 9.564-.37 14.168 1.252 3.067 1.082 5.527 2.89 6.21 6.308.997 4.985-2.208 9.655-7.27 10.39-2.03.297-4.138.05-6.35.05.174 3.463.437 7.086 2.722 10.185.82 1.11 1.978 1.582 3.358 1.288 1.315-.28 1.802-1.334 2.164-2.47.11-.348.2-.7.367-1.29.47.515.852.848 1.13 1.254 2.227 3.257.367 7.53-3.517 8.106-4.123.614-7.178-1.26-8.66-5.37-1.453-4.03-1.436-8.194-1-12.38.108-1.023.308-2.035.48-3.16m42.367 1.543c2.108 0 4.077.048 6.04-.038.435-.02.917-.453 1.256-.81.43-.457.737-1.03 1.097-1.552.72-1.042.72-1.04 2.25-.806-.57 1.966-1.132 3.92-1.7 5.87-.24.822-.576 1.626-.724 2.464-.2 1.132-.767 1.507-1.937 1.144 0-.842-.03-1.72.007-2.592.053-1.19-.153-1.443-1.358-1.45-1.606-.007-3.214-.03-4.818.024-.32.01-.84.278-.917.533-1.26 4.134-2.462 8.285-3.674 12.433-.02.067.006.147.014.294 3.12 0 6.243.043 9.364-.044.493-.013 1.06-.53 1.435-.952.94-1.06 1.85-2.16 2.658-3.32.617-.888 1.334-1.23 2.474-.9-.088.28-.157.583-.276.866-.938 2.232-1.884 4.462-2.834 6.69-.412.966-.895 1.01-1.78.518a4.75 4.75 0 0 0-2.187-.576c-6.052-.045-12.103-.025-18.154-.025h-1.258c-.058-.83.244-1.284 1.075-1.36 1.872-.172 2.75-1.223 3.266-3.052 2.223-7.887 4.603-15.73 6.926-23.588.602-2.037.6-2.037-1.434-2.693-.21-.068-.417-.14-.705-.238l.245-1.164h1.357c5.04 0 10.084.03 15.126-.03.75-.01 1.492-.45 2.245-.66.31-.09.64-.104 1.06-.166v7.737c-.953.288-1.654.197-1.955-.993-.236-.933-.562-1.872-1.026-2.71-.24-.433-.85-.9-1.317-.928-1.862-.106-3.733-.062-5.6-.025-.27.005-.71.22-.774.43-1.17 3.838-2.296 7.69-3.47 11.67m-59.035-16.933c-.377 4.81-.74 9.496-1.115 14.18-.41 5.134-.83 10.267-1.245 15.4-.052.633-.072 1.27-.173 1.896-.16.985.136 1.594 1.196 1.74.4.054.782.217 1.21.342.008.677-.058 1.163-.934 1.156-3.622-.028-7.244-.012-10.91-.012-.08-.85.285-1.195 1.063-1.393 2-.507 2.007-.544 2.233-2.57.136-1.225.212-2.456.31-3.684.014-.18.002-.36.002-.606-.39-.024-.716-.062-1.042-.062-3.7-.004-7.4-.023-11.098.023-.45.006-1.027.246-1.318.578-1.306 1.485-2.54 3.035-3.78 4.578-.74.92-.655 1.15.485 1.526.456.15.918.285 1.403.435.055.86-.244 1.208-1.136 1.194-2.95-.046-5.9-.017-8.884-.017-.017-.794.268-1.243 1.05-1.333 1.704-.197 2.89-1.18 3.97-2.457 8.23-9.722 16.522-19.388 24.713-29.14 1.095-1.305 2.336-1.682 4-1.773zm-6.728 8.934c-.1-.02-.2-.043-.3-.065l-12.2 15.057h11.142l1.358-14.992zm90.326-4.106c-1.44 0-2.71-.08-3.962.04-.475.046-1.004.47-1.338.866a24.365 24.365 0 0 0-2.117 2.885c-.56.908-1.25 1.19-2.318.85.77-2.403 1.52-4.814 2.322-7.207.26-.776.795-.51 1.34-.237.503.25 1.06.553 1.597.557 5.265.04 10.53.045 15.795-.002.613-.005 1.22-.396 1.837-.58.366-.11.747-.166 1.243-.27v8.13c-.997.32-1.63.097-1.887-1.073-.214-.977-.576-1.927-.935-2.866-.138-.362-.422-.918-.68-.942a28.882 28.882 0 0 0-3.892-.072c-.18.008-.394.57-.494.905-2.21 7.386-4.405 14.775-6.604 22.163-.34 1.142-.676 2.285-1.035 3.42-.272.862-.134 1.45.877 1.636.58.107 1.14.32 1.76.5-.014.643.026 1.187-.89 1.18-4.218-.023-8.436-.01-12.693-.01-.012-.833.287-1.292 1.133-1.344 2.08-.128 2.974-1.31 3.536-3.302 2.252-7.99 4.696-15.93 7.065-23.887.117-.387.2-.783.34-1.34m26.99-1.807c-.386.327-.75.69-1.167.967-.236.157-.562.185-.852.255-.875.21-1.22.63-.953 1.61.925 3.414 1.77 6.85 2.685 10.438.254-.267.458-.444.617-.655 2.456-3.244 4.908-6.49 7.358-9.74.88-1.166.804-1.36-.626-1.72-.463-.118-.92-.26-1.652-.467.35-.446.6-1.044.86-1.05 2.827-.068 5.656-.043 8.473-.043.075.943-.32 1.33-1.128 1.432-1.464.186-2.437 1.058-3.32 2.214-2.993 3.915-6.08 7.76-9.102 11.65a5.286 5.286 0 0 0-.878 1.653c-1.18 3.845-2.318 7.704-3.466 11.56-.424 1.42-.338 1.57 1.072 1.94.575.15 1.15.3 1.725.453.035.01.063.04.188.12l-.286 1.02h-13.7c.02-.74.266-1.234 1.08-1.3.365-.03.72-.2 1.086-.253 1.172-.173 1.784-.827 2.11-1.984 1.133-4.015 2.364-8.002 3.526-12.01.127-.44.155-.967.043-1.406-1-3.898-2.066-7.78-3.06-11.68-.285-1.116-.754-1.92-2.004-2.042-.21-.02-.414-.138-.647-.22-.015-.593-.128-1.163.765-1.16 3.656.015 7.312.006 10.97.006l.28.41"/><path d="M546.903 240.652c-.025.932-.37 1.355-1.137 1.428-1.91.18-2.643 1.36-3.15 3.137-2.262 7.913-4.682 15.78-7.036 23.667-.553 1.853-.54 1.857 1.36 2.455.245.077.49.157.786.253-.036.627-.028 1.17-.917 1.163-3.884-.023-7.766-.01-11.7-.01-.05-.838.306-1.278 1.088-1.4 1.69-.26 2.438-1.305 2.898-2.926 2.28-8.024 4.673-16.016 7.027-24.02.484-1.644.48-1.62-1.125-2.203-.41-.15-1.15-.042-.983-.906.145-.75.695-.638 1.21-.638h11.678"/></g><path d="M401.833 112.5h444.74v74.428h-444.74V112.5z"/><path d="M432.34 119.683c1.228 0 2.862.41 4.496 2.044 1.636 1.226 1.636 3.677 1.227 5.72-.41 1.635-.818 2.862-2.86 4.088-2.044 1.226-4.088 1.226-4.088 1.226v7.765l3.678 3.27-3.678 2.86v11.035s3.678-2.453 6.13-7.357l.408-.818c0 1.635 0 4.086-1.634 7.763-.818 2.454-2.86 4.908-5.722 6.542-4.495 2.45-7.765 2.45-11.443 2.042-4.495-1.227-8.582-3.676-11.033-7.764-2.043-2.86-2.86-6.54-2.86-10.217.408-7.355 5.72-13.484 11.85-15.936.818-.41 1.226-.41 2.452-.41-.41 0-1.226.41-2.043 1.227-2.043 1.226-3.677 3.68-4.494 5.722l12.26-5.313v17.163l-9.81 4.904c1.228 1.634 4.498 4.088 7.357 4.088 5.313.814 8.174-1.635 8.174-1.635v-11.035l-4.087-2.86 4.087-3.27v-7.764c-2.043-.408-4.904-1.225-6.13-1.634-2.452-.408-9.808-2.452-10.626-2.452-1.224-.41-2.858-.41-3.677.408-.817.82-1.225 2.044-.817 3.27 0 .817.41 1.226.817 1.634 0 0-.408 0-1.225-.408-1.226-.817-2.452-2.452-2.452-4.496 0-2.45.817-4.903 3.27-6.538 1.634-1.226 3.677-2.043 6.13-1.635 3.678.408 8.58 2.452 13.077 3.677 1.634.41 2.86.41 4.086-.408.408-.41 1.633-1.227.816-2.453-1.225-1.635-2.86-1.635-4.495-2.044 1.227-.408 1.635-.408 2.86 0zM417.63 153.6v-16.753l-4.904 2.452s-1.226 2.86-1.226 6.946c.41 3.27 2.043 6.947 3.27 8.58l2.86-1.225zm62.115-17.57s-4.087 2.452-6.538 4.087l-5.72 2.86v15.936l-2.454 1.634.41.412 2.043-1.635 6.946 6.13 12.26-9.4-.41-.41-6.537 5.314-5.72-5.315v-1.635l11.032-8.172-5.312-9.808zm0 13.076l-5.72 4.087v-13.485l5.72 9.398zm-31.467 22.478c1.635 0 4.087.407 7.765-1.227 3.678-2.042 5.313-5.722 5.313-9.81l.41-5.72V142.16l2.042-1.635v-.408l-2.452 1.634-5.313-5.72-6.947 5.72v-20.023l-8.582 6.538c.41.41 1.635.41 1.635 2.453v28.195l-3.678 2.453.408.408 1.634-1.227 4.904 4.495 7.765-6.13-.41-.407-1.634 1.634-2.044-2.042v-15.53l2.043-2.043 3.677 4.087v13.486c0 3.676 0 8.17-2.044 10.217-2.042 2.45-2.45 2.45-4.495 3.27zm53.534-1.634c-3.27-.413-4.495-2.047-4.495-3.68 0-.816 1.226-2.862 2.86-2.862 2.044-.408 3.678.412 5.313 2.454l7.356-8.172h-.41l-2.042 2.042c-1.635-2.042-4.495-3.678-7.356-4.087v-24.11l18.39 33.92s.408.407 1.225.407c.41 0 .41-.408.41-.408v-33.92c1.634-.408 3.677-1.225 4.903-2.043 3.678-3.676 2.043-7.763 1.635-8.172 0 1.635-1.634 3.27-3.677 3.678-2.86 0-4.904-2.452-4.904-2.452l-6.95 8.174.41.408 2.044-2.452c2.45 2.452 4.086 2.452 6.13 2.86v19.616l-13.895-24.927c-1.227-2.044-2.86-4.087-6.13-4.087s-5.72 2.86-6.13 5.72c-.41 2.862 0 3.68 0 3.68s.41-3.27 2.452-3.27c2.043 0 2.86 1.635 3.677 2.86v7.356c-2.043 0-6.947 0-6.947 5.312 0 1.635 1.226 3.678 2.043 4.495 1.226.816 2.452.816 2.452.816s-1.635-.817-1.226-2.45c.41-1.635 3.677-1.635 3.677-1.227v10.215c-1.635 0-6.13 0-8.582 4.087-1.226 2.454-1.226 5.31.408 7.356 1.227 1.635 3.27 3.676 7.356 2.86zm39.231-33.92s-3.677 2.452-6.538 4.087l-5.72 2.86v15.936l-2.454 1.634.41.412 2.452-1.635 6.538 6.13 12.26-9.4-.41-.41-6.537 5.314-5.313-5.315v-1.635l10.625-8.172-5.312-9.808zm0 13.076l-5.313 4.087v-13.485l5.313 9.398zm16.755 16.348l-6.13-4.907-2.452 2.046-.408-.407 2.86-2.047v-13.485c0-5.72-5.313-4.087-4.904-10.216 0-2.454 2.452-4.496 4.086-5.314 1.226-.408 2.86-.408 2.86-.408s-2.45 1.226-2.043 3.678c.818 3.268 6.54 3.268 6.948 7.764v15.53l4.087 3.27 1.225-.82v-16.755l-2.452-2.042 5.722-5.313 5.312 4.904-2.043 2.043v14.713l5.312 4.084.816-.408v-17.98l-2.452-2.043 5.72-5.313 5.72 4.495 2.045-2.043.408.41-4.904 4.493v14.305l-12.667 7.764-6.54-4.907-6.13 4.907zM815.25 136.03s-4.09 2.452-6.54 4.087l-5.72 2.86v15.936l-2.454 1.634.41.412 2.044-1.635 6.947 6.13 12.258-9.4-.407-.41-6.54 5.314-5.72-5.315v-1.635l11.033-8.172-5.31-9.808zm0 13.076l-5.723 4.087v-13.485l5.722 9.398zm-56.395-6.129h.41l2.04-1.634 3.272 3.678V158.1l-1.635 1.227 5.313 6.13 5.31-5.316-2.042-2.45v-15.53l1.225-1.226 3.678 4.495v13.075l-1.225 1.227 4.904 5.31 5.312-4.903-2.04-2.042V142.16l1.223-1.226 4.087 4.495v12.668l-1.227 1.227 5.313 6.13 7.356-6.95-.41-.407-1.635 1.634-2.86-2.86V142.16l2.453-2.043v-.41l-2.86 2.044-4.906-5.31-6.947 5.31-4.905-5.31-6.946 5.31-4.903-5.31-7.355 6.537z" fill="#33BBE3"/><path d="M744.142 142.568l2.044-1.634 2.86 3.678v14.713l-2.043 2.04.41.41 2.044-2.043 4.902 5.722 6.946-6.13-.407-.41-2.045 1.633-2.86-3.27v-14.71l2.452-2.042v-.408l-2.453 2.043-4.903-5.72-6.948 6.128zm2.044-12.668l4.905-4.496 4.496 4.497-5.312 4.905-4.088-4.904z" fill="#33BBE3"/><path d="M738.83 119.683c1.227 0 3.27.41 4.905 2.044 1.224 1.226 1.634 3.677 1.224 5.72-.408 1.635-1.225 2.862-2.86 4.088-2.043 1.226-4.087 1.226-4.087 1.226v7.765l3.678 3.27-3.677 2.86v11.035s3.678-2.453 6.13-7.357l.41-.818c0 1.635 0 4.086-1.635 7.763-.817 2.454-3.27 4.908-5.722 6.542-4.496 2.45-8.174 2.45-11.85 2.042-4.087-1.227-8.173-3.676-10.627-7.764-2.042-2.86-2.86-6.54-2.86-10.217 0-7.355 5.72-13.484 11.85-15.936.82-.41 1.227-.41 2.453-.41-.817 0-1.226.41-2.043 1.227-2.044 1.226-3.68 3.68-4.496 5.722l12.26-5.313v17.163l-9.808 4.904c1.226 1.634 4.495 4.088 7.356 4.088 4.903.814 7.764-1.635 7.764-1.635v-11.035l-3.68-2.86 3.68-3.27v-7.764c-2.042-.408-4.496-1.225-6.13-1.634-2.044-.408-9.398-2.452-10.625-2.452-.816-.41-2.45-.41-3.267.408-.817.82-1.227 2.044-1.227 3.27.41.817.817 1.226 1.227 1.634 0 0-.41 0-1.227-.408-1.227-.817-2.45-2.452-2.45-4.496-.41-2.45.816-4.903 2.86-6.538 2.042-1.226 4.085-2.043 6.537-1.635 3.678.408 8.583 2.452 12.668 3.677 2.045.41 3.27.41 4.497-.408.407-.41 1.226-1.227.407-2.453-.817-1.635-2.45-1.635-4.086-2.044 1.227-.408 1.635-.408 2.452 0zm-14.3 33.918v-16.753l-4.906 2.452s-1.634 2.86-1.226 6.946c0 3.27 2.043 6.947 3.27 8.58l2.86-1.225zm103.795 13.895c-.817.407-4.086-.408-4.903-4.088-.817-3.676 1.634-5.718 5.313-9.807l-4.496-3.677v-7.763s3.268-1.226 5.72-2.86l4.904-3.27s2.044 2.452 4.086 2.043c3.27-.41 3.27-2.86 2.86-3.268.818.817 2.045 3.677-3.678 10.624l4.905 3.676v9.807s-5.722 2.86-10.624 6.54c0 0-2.86-3.68-5.313-2.045-2.044 1.227-1.226 3.268 1.225 4.088zm-4.086-7.357s2.45-4.086 6.946-3.27c4.088.82 5.312 4.904 5.312 4.904v-9.807l-2.858-2.452c-2.862 3.27-8.584 7.763-9.4 10.624zm6.538-20.84v7.763l2.452 2.452s5.72-4.494 7.763-8.99c0 0-2.45 3.68-6.13 2.452-2.86-.817-4.085-3.678-4.085-3.678zm-178.581 3.269l2.044-1.634h.41l-2.045 2.043v15.528s-4.087 2.042-6.54 3.68l-5.72 3.27-7.355-6.13-1.634 1.634h-.41l2.044-2.047V142.16s3.27-1.226 6.13-2.86c2.45-1.636 5.312-3.27 5.312-3.27l7.764 6.538zm-12.26 13.896l5.723 5.31V145.02l-5.723-5.312v16.756zm26.564-15.53l4.494-4.495s.41.407 1.227.816c.408.408 1.635.817 2.862.408.817-.408.817-.817 1.634-1.225 0 3.677-1.634 6.128-3.678 6.945-1.227.41-3.678 1.227-6.54-2.042v16.755l3.27 2.45 2.043-1.635h.41l-7.356 6.54-5.72-5.314-2.043 2.046-.41-.412 2.862-2.86V144.61l-2.044-3.27-2.042 1.635h-.41l7.357-6.538 4.086 4.494zm19.206 7.356l8.174-12.26s1.224 1.226 3.268 1.634c2.45.818 4.903-1.634 4.903-1.634-.407 3.27-2.04 6.947-5.72 7.355-2.86.41-5.72-2.042-5.72-2.042l-.408 1.225 11.44 17.57 2.453-2.04.41.407-8.174 6.95-10.624-17.166z" fill="#33BBE3"/><path d="M678.76 131.944c0-2.862-1.227-4.496-2.86-4.496l9.397-6.13v36.372l2.453 2.45 1.634-1.635.408.408-7.356 6.54-4.903-4.906-2.044 2.046-.408-.407 3.678-3.273v-26.97zm-76.828-.818c0-2.452-1.226-3.678-2.86-3.678-2.452-.408-2.86 3.27-2.86 3.27s-.41-2.86 1.633-4.904c1.226-1.227 3.68-3.27 6.948-2.452 3.677.817 4.904 3.678 4.904 6.13v33.916s1.226.412 2.043.412c1.225.407 2.042.407 2.042.407v-40.865h.41v5.72l7.355-6.13 5.72 4.905 2.453-2.043h.41l-2.862 2.45v31.468c0 2.042-.408 4.088-2.45 5.31-4.088 2.86-9.4-.407-14.304-.815-3.27-.82-8.582-1.227-10.216 2.042-.41.818-.41 2.453 1.226 3.68 3.27 2.04 17.162-3.68 22.066-1.227 4.495 2.04 4.495 4.902 3.678 7.356-1.225 4.082-6.538 4.9-6.538 4.9s2.86-1.633 2.043-4.086c-.41-1.227-1.226-1.635-4.087-1.227-6.13.82-13.076 3.68-17.98 1.64-2.452-1.228-4.495-4.09-4.086-7.358 0-4.496 5.312-6.13 5.312-6.13v-16.348c-.408-.41-2.86-.41-3.678.817-.817 2.043 1.227 2.86 1.227 2.86s-1.635 0-3.27-1.635c-.407-.817-2.043-3.27 0-6.13 1.227-2.042 3.27-2.45 5.722-2.45v-9.81zm12.26 33.51s2.452.406 3.677-.816c2.042-1.634 1.635-3.273 1.635-3.273V147.88s-.82-1.634-2.453-1.634c-1.634 0-2.86 1.635-2.86 1.635v16.755zm5.313-33.51l-3.27-2.86-2.043 1.225v11.853s1.226 1.225 2.86 1.225 2.453-1.225 2.453-1.225v-10.217zm0 11.034s-.82.817-2.453.817a5.654 5.654 0 0 1-2.86-.817v4.903s1.226-1.225 2.86-1.225 2.453 1.225 2.453 1.225v-4.903zM897.224 125v3.42h24.33V125h-24.33zm27.78 0v3.42h34.67s-3.54-3.42-8.23-3.42h-26.44zm41.473 0v3.42h20.977L986.21 125h-19.733zm36.016 0l-1.245 3.42h20.786V125h-19.54zm-105.27 6.653v3.42h24.332v-3.42h-24.33zm27.78.005v3.416H963.7s-.453-2.633-1.24-3.416h-37.457zm41.474 0v3.416h23.276l-1.152-3.416h-22.123zm33.526 0l-1.153 3.416h23.184v-3.416h-22.03zm-95.787 6.648v3.425h10.537v-3.424h-10.537zm27.78 0v3.425h10.536v-3.424h-10.537zm20.785 0v3.425h10.538s.67-1.808.67-3.424H952.78zm20.69 0v3.425h18.68l-1.244-3.424H973.47zm24.238 0l-1.25 3.425h18.774v-3.424h-17.524zm-93.492 6.657v3.42h10.537v-3.42h-10.537zm27.78 0v3.42h26.913s2.25-1.754 2.968-3.42h-29.883zm41.473 0v3.42h10.536v-1.903l.67 1.904h19.3l.72-1.904v1.904h10.536v-3.42h-19.78l-1.05 2.897-1.055-2.897H973.47zm-69.254 6.653v3.42h10.537v-3.42h-10.537zm27.78 0v3.42h29.882c-.718-1.66-2.97-3.42-2.97-3.42h-26.913zm41.473 0v3.42h10.536v-3.42H973.47zm12.45 0l1.275 3.42h14.473l1.21-3.42H985.92zm18.775 0v3.42h10.537v-3.42h-10.537zm-100.48 6.653v3.42h10.538v-3.42h-10.537zm27.78 0v3.42h10.537v-3.42h-10.537zm20.786 0v3.42h11.207c0-1.615-.67-3.42-.67-3.42h-10.536zm20.69 0v3.42h10.536v-3.42H973.47zm14.843 0l1.235 3.42h9.703l1.246-3.42h-12.183zm16.382 0v3.42h10.537v-3.42h-10.537zm-107.28 6.652v3.425h24.33v-3.425h-24.33zm27.588 0v3.425h37.456c.787-.784 1.24-3.425 1.24-3.425h-38.697zm41.665 0v3.425h17.338v-3.425h-17.338zm24.043 0l1.27 3.425h4.937l1.19-3.425h-7.396zm13.985 0v3.425h17.53v-3.425h-17.53zm-107.28 6.657V175h24.33v-3.42h-24.33zm27.588 0v3.415h26.44c4.69 0 8.232-3.416 8.232-3.416h-34.672zm41.665 0V175h17.338v-3.42h-17.338zm26.45 0l1.22 3.41.21.005 1.24-3.416h-2.67zm11.577 0V175h17.53v-3.42h-17.53z" fill="#33BBE3"/><g fill="#33BBE3"><path d="M50 119.524c.69-.332 1.377-.67 2.07-.996 4.55-2.136 9.332-3.54 14.26-4.48a78.169 78.169 0 0 1 10.954-1.306c3.78-.178 7.557-.144 11.33.178 4.148.354 8.252.983 12.292 1.998 4.173 1.05 8.21 2.468 12.035 4.462.247.13.348.266.348.556-.008 11.95-.003 23.9-.01 35.85-.002 3.74-.645 7.353-2.245 10.76-1.93 4.112-4.884 7.305-8.748 9.677-3.34 2.05-6.83 3.818-10.373 5.476-3.3 1.543-6.636 3.01-9.96 4.498-.158.07-.392.1-.542.034-6.503-2.805-12.956-5.714-19.12-9.224-2.8-1.596-5.318-3.525-7.332-6.072-2.46-3.112-3.957-6.64-4.585-10.543-.15-.937-.207-1.89-.31-2.833-.013-.118-.04-.235-.063-.353v-37.683zm62.57 19.793h.002c0-6.317-.002-12.634.007-18.95 0-.3-.094-.45-.36-.586-5.26-2.684-10.865-4.286-16.656-5.296-4.975-.867-9.99-1.232-15.04-1.164-5.293.07-10.534.617-15.713 1.732-4.772 1.027-9.39 2.504-13.75 4.733-.25.128-.348.263-.348.553.008 11.878.007 23.756.007 35.633 0 1.664.14 3.313.452 4.947.868 4.54 2.92 8.443 6.237 11.68 1.95 1.903 4.253 3.294 6.617 4.594 5.622 3.095 11.462 5.736 17.35 8.28.15.065.384.06.538-.007 2-.87 4.002-1.738 5.985-2.646 4.445-2.034 8.85-4.148 13.082-6.606 2.926-1.698 5.482-3.806 7.454-6.578 2.825-3.97 4.088-8.44 4.123-13.266.04-5.683.01-11.366.01-17.05zM101.293 187.5c-.607-.15-1.182-.357-1.646-.807-.945-.917-1.16-2.283-.527-3.413a2.94 2.94 0 0 1 3.247-1.4c1.283.32 2.2 1.46 2.21 2.75.012 1.27-.856 2.4-2.107 2.75-.126.034-.248.08-.372.12h-.805zm.39-.506c1.32 0 2.39-1.053 2.388-2.35-.002-1.29-1.078-2.345-2.395-2.347-1.318 0-2.407 1.053-2.41 2.336-.004 1.31 1.072 2.362 2.417 2.36z"/><path d="M110.08 120.533c.008.093.022.2.022.306-.002 11.863.02 23.728-.02 35.593-.015 4.482-1.268 8.608-3.986 12.232-1.68 2.24-3.805 3.963-6.206 5.374-4 2.348-8.174 4.35-12.382 6.287-1.838.845-3.694 1.65-5.535 2.486-.248.113-.446.096-.686-.01-4.843-2.126-9.658-4.313-14.337-6.784-2.274-1.202-4.557-2.4-6.558-4.04-3.696-3.027-5.955-6.923-6.79-11.613a26.896 26.896 0 0 1-.406-4.506c-.043-6.778-.022-13.558-.01-20.338 0-.176.11-.4.242-.52 6.61-5.9 14.236-9.934 22.75-12.324 4.507-1.265 9.1-2.04 13.764-2.434 5.983-.505 11.96-.403 17.94.065.704.054 1.408.117 2.113.178.02 0 .04.02.086.045zm-29.504 41.38c.172.033.3.06.43.083 2.473.462 4.813.173 6.915-1.296 1.755-1.225 2.867-2.947 3.555-4.935 1.296-3.737 1.388-7.552.564-11.396-.38-1.774-1.107-3.407-2.284-4.81-1.57-1.875-3.612-2.873-6.02-3.084-2.9-.253-5.692.142-8.273 1.6-.266.15-.37.31-.37.623.01 11.34.008 22.68.01 34.02 0 .13.01.258.016.396h5.456v-11.203zm-24.61-24.956c-.01.14-.02.236-.02.332 0 5.523-.012 11.047.014 16.572.004.896.1 1.806.276 2.685.577 2.873 2.254 4.748 5.15 5.443 1.6.384 3.22.348 4.838.18 2.047-.212 3.992-.76 5.77-1.83.218-.13.328-.27.327-.546-.007-7.488-.008-14.976.002-22.463 0-.336-.11-.402-.418-.4-1.5.016-3 .005-4.5.01-.573 0-.553-.1-.553.544 0 6.39-.003 12.78.01 19.17 0 .367-.126.55-.446.682-.724.302-1.476.412-2.252.394-1.23-.03-2.11-.638-2.453-1.816a6.949 6.949 0 0 1-.283-1.904c-.022-5.524-.013-11.05-.013-16.573v-.48h-5.45zm51.12 5.822v-.47c0-1.232-.017-2.464.01-3.694.01-.38-.117-.602-.434-.79-2.485-1.462-5.13-1.88-7.88-1.01-6.16 1.95-6.17 9.09-2.734 11.965a22.82 22.82 0 0 0 3.232 2.257c.865.502 1.726 1.015 2.406 1.768 1.242 1.374 1.066 3.57-.366 4.51-.792.523-1.685.623-2.6.516-1.63-.19-3.06-.87-4.353-1.855-.092-.07-.188-.135-.308-.222-.02.09-.038.133-.038.178-.002 1.488-.01 2.976.01 4.463 0 .128.138.308.26.374 2.097 1.137 4.33 1.685 6.72 1.47 2.04-.183 3.81-.952 5.188-2.524 2.228-2.54 2.78-7.92-1.016-10.917-1.193-.942-2.503-1.686-3.79-2.475-.608-.372-1.207-.795-1.708-1.297-1.13-1.13-1.034-3.72 1.31-4.288 1.224-.296 2.394-.106 3.537.36.923.375 1.737.924 2.553 1.684zm-4.039 43.534c-.635.13-.69.11-1-.36-.22-.334-.44-.666-.748-.984v1.37h-.664v-1.46c0-.56.008-1.12-.004-1.68-.005-.224.078-.306.298-.294.315.017.634-.005.947.03.54.062.857.362.93.83.072.464-.122.785-.62 1.032-.032.015-.06.04-.125.083l.985 1.433zm-1.775-1.843c.267-.05.492-.054.68-.14.272-.12.283-.393.193-.63-.117-.31-.414-.304-.684-.288-.31.02-.162.27-.183.424-.023.178-.005.36-.005.634z"/><path d="M80.57 149.267c0-2.61.005-5.218-.006-7.827-.002-.28.08-.416.35-.488 1.318-.353 2.605-.405 3.806.366.75.482 1.24 1.2 1.473 2.033.28 1.005.53 2.034.636 3.068.24 2.36.225 4.724-.246 7.064-.186.925-.476 1.815-1 2.614-1.03 1.565-3.09 2.203-4.812 1.467-.104-.044-.19-.26-.192-.395-.01-2.634-.008-5.267-.008-7.9h-.002"/></g><path d="M392.738 14.346c-4.303.306-7.95 3.926-7.95 9.03V47.66c0 .88-.65 1.634-1.6 1.634h-7.585c-16.42.02-14.96-20.963-.983-20.99h8.385v-6.1h-8.69c-5.568 0-9.695 2.077-12.482 5.176-2.786 3.1-4.186 7.272-4.192 11.432-.006 4.16 1.374 8.308 4.226 11.407 2.85 3.09 7.16 5.175 13.066 5.175h14.304c.944 0 1.725-.814 1.725-1.758V24.02c-.006-1.523.854-2.708 1.974-3.053 1.12-.345 2.434.092 3.203 1.205l.032.032c4.068 6.654 20.22 32.566 20.247 32.61.442.633.97.743 1.354.62.385-.13.776-.547.77-1.576V24.02c-.007-1.523.852-2.708 1.972-3.053 1.12-.345 2.402.092 3.177 1.205v.032h.057c4.07 6.654 20.222 32.566 20.248 32.61.436.626.95.75 1.354.62.403-.13.806-.52.8-1.543V14.504h-6.133V37.49s-3.66-6.25-9.922-17.01c-6.14-10.54-17.72-6.18-17.72 2.896V37.49s-3.595-6.25-9.865-17.01c-2.682-4.61-6.425-6.375-9.772-6.134zm-17.35.157c-34.134 0-33.802 48.64.462 48.665h13.405c5.762 0 9.44-3.41 9.434-9.707V41.13s7.525 12.442 10.48 17.318c5.014 8.288 17.136 6.654 17.103-3.698V41.13s7.5 12.442 10.45 17.318c5.013 8.288 17.168 6.654 17.135-3.698V14.496h-6.133v39.388c.007 1.51-.788 2.63-1.88 2.988-1.095.358-2.352-.09-3.113-1.17h-.033v-.06s-16.16-25.84-20.28-32.578c-.014-.013-.02.013-.033 0-.007 0 .006-.033 0-.033-.423-.565-.97-.69-1.42-.552-.462.143-.898.54-.89 1.543v29.832c.005 1.503-.77 2.688-1.85 3.053-1.08.365-2.325-.117-3.08-1.204v-.032h-.032s-16.172-25.892-20.28-32.61c-.43-.613-.983-.762-1.446-.62-.463.144-.9.54-.893 1.544V53.63c0 1.797-1.477 3.3-3.268 3.3h-14.304c-6.276 0-11.035-2.258-14.18-5.67-3.144-3.41-4.694-7.936-4.687-12.454.005-4.512 1.555-9.07 4.62-12.48 3.067-3.412 7.67-5.665 13.62-5.67h8.692V14.49h-7.61l.006.013z" fill="#33BBE3"/></g></svg>